<?xml version="1.0" encoding="UTF-8" standalone="no"?>
<!-- Created with Inkscape (http://www.inkscape.org/) -->

<svg
   version="1.1"
   id="svg204"
   width="60"
   height="60"
   viewBox="0 0 60 60"
   sodipodi:docname="profile.svg"
   xml:space="preserve"
   inkscape:version="1.2.1 (9c6d41e410, 2022-07-14)"
   xmlns:inkscape="http://www.inkscape.org/namespaces/inkscape"
   xmlns:sodipodi="http://sodipodi.sourceforge.net/DTD/sodipodi-0.dtd"
   xmlns="http://www.w3.org/2000/svg"
   xmlns:svg="http://www.w3.org/2000/svg"><defs
     id="defs208" /><sodipodi:namedview
     id="namedview206"
     pagecolor="#ffffff"
     bordercolor="#000000"
     borderopacity="0.25"
     inkscape:showpageshadow="2"
     inkscape:pageopacity="0.0"
     inkscape:pagecheckerboard="0"
     inkscape:deskcolor="#d1d1d1"
     showgrid="false"
     inkscape:zoom="3.9333333"
     inkscape:cx="-10.805085"
     inkscape:cy="53.771186"
     inkscape:window-width="1366"
     inkscape:window-height="684"
     inkscape:window-x="0"
     inkscape:window-y="0"
     inkscape:window-maximized="1"
     inkscape:current-layer="g210" /><g
     inkscape:groupmode="layer"
     inkscape:label="Image"
     id="g210"><path
       id="path2115"
       style="fill:#e7eced;fill-opacity:1;stroke:none;stroke-width:1.0165;stroke-opacity:1"
       d="M 30 0 A 30 30 0 0 0 0 30 A 30 30 0 0 0 30 60 A 30 30 0 0 0 60 30 A 30 30 0 0 0 30 0 z M 29.585938 0.22851562 C 35.995374 0.12771522 42.383579 2.1271063 47.808594 6.2050781 C 55.83951 12.241899 60.078587 21.184558 59.675781 31.244141 C 59.448879 36.910735 57.878786 41.762069 54.753906 46.458984 C 53.412137 48.475755 49.764962 52.626953 49.333984 52.626953 C 48.759061 52.626953 37.642873 46.662546 37.095703 46.060547 C 36.517766 45.424694 36.414735 45.03575 36.263672 42.886719 L 36.091797 40.4375 L 36.988281 39.191406 C 37.480883 38.50574 38.405581 36.843581 39.042969 35.498047 C 39.680352 34.152514 40.428684 32.930218 40.707031 32.78125 C 41.845999 32.171693 42.202113 31.070868 42.203125 28.146484 C 42.203903 25.903756 42.111026 25.221111 41.695312 24.40625 C 41.256724 23.546547 41.185547 22.908461 41.185547 19.759766 C 41.185547 14.971504 40.885329 13.92478 38.943359 11.953125 C 36.89076 9.8691544 34.055361 8.9003906 30 8.9003906 C 25.944639 8.9003906 23.109238 9.8691544 21.056641 11.953125 C 19.114669 13.92478 18.814453 14.971504 18.814453 19.759766 C 18.814453 22.956963 18.747037 23.538079 18.283203 24.447266 C 17.820059 25.355105 17.765797 25.845589 17.839844 28.357422 C 17.914304 30.883332 17.995175 31.325633 18.511719 32.023438 C 18.83476 32.459837 19.380044 33.566995 19.724609 34.482422 C 20.500948 36.544962 21.201764 37.936119 22.1875 39.375 C 22.924055 40.450153 22.943579 40.558788 22.820312 42.720703 C 22.721264 44.457895 22.571505 45.12656 22.148438 45.720703 C 21.797303 46.213826 20.185118 47.270418 17.603516 48.699219 C 15.402626 49.917311 12.957279 51.298306 12.169922 51.769531 C 11.382565 52.240754 10.683262 52.626953 10.615234 52.626953 C 10.547204 52.626953 9.6446044 51.739934 8.609375 50.65625 C 5.4960839 47.397236 3.1589403 43.567268 1.7851562 39.466797 C -1.1772382 30.624643 0.14141795 21.098434 5.4160156 13.220703 C 7.0524132 10.776707 10.776707 7.0524132 13.220703 5.4160156 C 18.259673 2.0421336 23.930552 0.31745718 29.585938 0.22851562 z " /><path
       style="fill:#dac6a1;stroke-width:0.117188;fill-opacity:1"
       d="M 48.691406,52.589855 C 48.433594,52.398559 45.862849,51.060739 42.97864,49.616923 39.548543,47.899839 37.569291,46.842434 37.256646,46.559978 36.993758,46.322475 36.637745,45.861136 36.465506,45.53478 36.160727,44.957292 36.151331,44.878153 36.114529,42.578745 l -0.03782,-2.362661 0.628696,-0.859996 c 1.207609,-1.65189 2.087988,-3.270229 2.826595,-5.195932 0.346851,-0.904308 0.465119,-1.08951 0.829478,-1.298917 0.659882,-0.379251 1.127191,-0.874034 1.429539,-1.513583 0.265643,-0.561909 0.277002,-0.694065 0.277002,-3.222656 0,-2.515857 -0.01252,-2.663577 -0.273175,-3.222656 C 41.644601,24.580078 41.434179,24.244031 41.327243,24.155573 41.154026,24.012287 41.132716,23.609528 41.131928,20.464167 41.13144,18.522352 41.075677,16.59082 41.008007,16.171875 40.4259,12.568001 37.981252,10.275681 33.740921,9.3576114 32.686037,9.1292191 32.176057,9.0931692 30,9.0931692 c -2.176057,0 -2.686037,0.03605 -3.740921,0.2644422 -4.240331,0.9180696 -6.684979,3.2103896 -7.267086,6.8142636 -0.06767,0.418945 -0.123433,2.350477 -0.123921,4.292292 -8.2e-4,3.145361 -0.0221,3.54812 -0.195315,3.691406 -0.106936,0.08846 -0.317358,0.424505 -0.467605,0.746771 -0.260816,0.559428 -0.27311,0.705231 -0.271746,3.222656 0.0016,2.975593 0.06248,3.251052 0.919288,4.160156 0.355187,0.376867 0.53062,0.744399 0.894997,1.875 0.537345,1.667296 1.477649,3.57063 2.503954,5.068419 l 0.742801,1.084045 -0.0472,2.138612 c -0.05104,2.313009 -0.154268,2.750606 -0.87026,3.68932 -0.388242,0.509012 -0.382833,0.505779 -5.729332,3.424905 -2.513672,1.372436 -4.820245,2.677343 -5.125717,2.899796 L 10.666533,52.86971 9.739528,52.028593 C 5.7469144,48.405902 2.565218,43.199596 1.1188975,37.922394 -0.92772048,30.454882 0.05771739,22.149211 3.7759895,15.527344 7.5278166,8.8457188 13.534286,3.8818978 20.715428,1.5283796 25.722956,-0.1127668 31.354593,-0.3800784 36.5625,0.77618156 48.046445,3.3258477 57.181547,12.724379 59.39875,24.270963 c 0.513864,2.676067 0.670766,6.405157 0.376639,8.951693 -0.666948,5.774437 -2.883101,11.08536 -6.528179,15.644531 -0.820631,1.026426 -3.506267,3.770712 -3.877772,3.96246 -0.157457,0.08127 -0.325359,0.02189 -0.678032,-0.239792 z"
       id="path226" /></g></svg>
