<?xml version="1.0" encoding="UTF-8" standalone="no"?>
<!-- Created with Inkscape (http://www.inkscape.org/) -->

<svg
   xmlns:dc="http://purl.org/dc/elements/1.1/"
   xmlns:cc="http://creativecommons.org/ns#"
   xmlns:rdf="http://www.w3.org/1999/02/22-rdf-syntax-ns#"
   xmlns:svg="http://www.w3.org/2000/svg"
   xmlns="http://www.w3.org/2000/svg"
   xmlns:sodipodi="http://sodipodi.sourceforge.net/DTD/sodipodi-0.dtd"
   xmlns:inkscape="http://www.inkscape.org/namespaces/inkscape"
   width="16"
   height="16"
   viewBox="0 0 4.2333332 4.2333335"
   version="1.1"
   id="svg1284"
   inkscape:version="0.92.0 r15299"
   sodipodi:docname="logo.svg">
  <defs
     id="defs1278" />
  <sodipodi:namedview
     id="base"
     pagecolor="#ffffff"
     bordercolor="#666666"
     borderopacity="1.0"
     inkscape:pageopacity="0.0"
     inkscape:pageshadow="2"
     inkscape:zoom="44.8"
     inkscape:cx="6.6223566"
     inkscape:cy="11.063198"
     inkscape:document-units="mm"
     inkscape:current-layer="g1414"
     showgrid="true"
     units="px"
     inkscape:window-width="1366"
     inkscape:window-height="705"
     inkscape:window-x="-8"
     inkscape:window-y="-8"
     inkscape:window-maximized="1" />
  <metadata
     id="metadata1281">
    <rdf:RDF>
      <cc:Work
         rdf:about="">
        <dc:format>image/svg+xml</dc:format>
        <dc:type
           rdf:resource="http://purl.org/dc/dcmitype/StillImage" />
        <dc:title />
      </cc:Work>
    </rdf:RDF>
  </metadata>
  <g
     inkscape:label="Capa 1"
     inkscape:groupmode="layer"
     id="layer1"
     transform="translate(0,-292.76665)">
    <g
       id="g1414"
       transform="matrix(0.02294586,0,0,0.02294586,23.256474,293.38297)">
      <path
         style="opacity:1;fill:#ffffff;stroke:none;stroke-width:0.10583328;stroke-miterlimit:4;stroke-dasharray:none;stroke-opacity:1"
         d="m -911.18419,29.856507 c -5.07999,0.04341 -9.74179,0.983264 -13.63237,3.587528 17.82937,-7.27999 49.19377,8.037869 63.94909,-1.92422 -12.70916,7.627219 -33.72212,-1.805081 -50.31672,-1.663308 z m -30.58776,0.130408 c -17.25973,0.05393 -31.35403,8.487999 -46.05173,5.740044 11.41184,4.978442 40.56257,-7.206513 56.49186,-4.6964 -3.60997,-0.762946 -7.09405,-1.053781 -10.44013,-1.043644 z m 84.27988,1.141479 -3.68938,1.532855 16.98157,65.65175 -0.91581,0.03343 -16.66759,-64.901629 -0.94193,0.750121 c -0.0375,-0.195286 14.44578,56.686284 16.1966,64.151519 l -0.62792,0.03343 -16.17043,-63.401397 c -16.68025,6.237253 -33.70336,-0.617805 -49.27011,-0.652287 -4.35869,-0.0096 -8.59915,0.528284 -12.69038,2.022064 l 0.78492,3.587525 h -0.86342 l 12.2979,48.138102 -0.36627,-0.163644 -12.926,-50.650315 -0.20933,-1.108871 c -3.80646,-1.49166 -7.59096,-2.032199 -11.38212,-2.022062 -16.42832,0.04558 -32.93725,10.808345 -51.41568,3.130933 l 1.22983,4.598559 -0.0268,0.163142 c 0.0388,1.617633 0.19828,2.843111 0.26164,4.370261 -0.73067,-3.226362 -1.21067,-5.690529 -2.06709,-9.131889 l -1.54376,-0.391348 c 0,0 0.3147,1.948913 0.49717,3.196159 l 0.10444,0.260912 c 0.41303,1.777183 0.57219,3.015511 0.94194,4.729014 -0.93417,-3.103749 -2.25239,-7.053967 -2.77358,-9.262344 -0.10178,-0.279964 -0.16667,-0.435509 -0.20926,-0.358747 -1.32817,-0.484768 -4.10801,-1.239331 -4.10801,-1.239331 l 16.77222,64.379823 -49.66269,-0.782663 24.596,9.979844 -24.596,9.94725 24.596,-0.35885 v 8.31655 c 0,1.53273 1.2369,2.67434 5.2332,2.67434 h 2.45945 0.60182 76.84875 76.87497 0.60179 2.45958 c 3.99624,0 5.23316,-1.14167 5.23316,-2.67434 v -8.31655 l 24.5958,0.35885 -24.5958,-9.94725 24.5958,-9.979844 -29.38414,0.456531 z m -81.297,0.848008 c -12.37039,-0.06579 -25.97537,5.970308 -39.22246,5.903115 22.2939,1.038117 31.76079,-9.292652 51.15405,-3.196161 l -0.0268,-0.163143 c -3.78007,-1.829815 -7.78433,-2.521944 -11.90479,-2.543811 z"
         id="rect1026-9-7-5"
         inkscape:connector-curvature="0"
         sodipodi:nodetypes="cccccccccccccccccccccccccccccccccccccccccccsscccccssccccccccccc" />
      <path
         style="opacity:0.86000001;fill:#ffffff;stroke:none;stroke-width:1.15307665;stroke-miterlimit:4;stroke-dasharray:none;stroke-opacity:1"
         d="m -984.93288,-30.541353 -15.59772,17.705195 h -11.348 c 1.4183,23.603523 -12.779,97.370325 68.06456,126.874678 l 22.69627,51.63387 22.69626,-51.63387 c 80.84355,-29.504363 66.67042,-103.271161 68.08875,-126.874678 h -11.34814 l -15.59762,-17.705195 h -63.83925 z"
         id="rect66"
         inkscape:connector-curvature="0" />
      <path
         id="path930-5-6-4"
         d="m -821.79585,100.15001 -23.8125,7.40833 23.8125,7.40833 -47.625,-0.52916 v -0.52917 l 43.12709,0.52917 -21.16667,-6.87917 21.16667,-6.87917 -43.12709,0.52917 v -0.52917 z"
         style="fill:#445016;stroke:none;stroke-width:0.26458332px;stroke-linecap:butt;stroke-linejoin:miter;stroke-opacity:1"
         inkscape:connector-curvature="0" />
      <path
         id="path1021-2-9-72-3"
         d="m -858.57293,-25.791667 14.55209,15.8750013 h 10.58333 c 0,27.7812517 10.58333,89.9583287 -63.5,119.0625057 l -23.8125,47.62499 v -3.96874 l 21.16667,-46.30208 c 75.40625,-26.458347 62.17708,-92.604135 63.5,-113.7708427 h -10.58334 l -14.55208,-15.8750013 h -59.53125 v -2.645833 z"
         style="fill:#800000;stroke:none;stroke-width:0.26846528px;stroke-linecap:butt;stroke-linejoin:miter;stroke-opacity:1"
         inkscape:connector-curvature="0" />
      <path
         sodipodi:nodetypes="cssccccccccsc"
         inkscape:connector-curvature="0"
         id="rect1026-9-9-7"
         d="m -847.46043,106.76463 v 13.15371 c 0,1.05835 -1.05833,1.8521 -4.49792,1.8521 h -2.11666 -0.52917 -66.14584 v -14.02293 h 46.73979 1.41438 14.02292 2.20813 4.40645 c 2.14472,0 3.68284,-0.42321 4.49792,-0.98288 z"
         style="opacity:1;fill:#808000;stroke:none;stroke-width:0.10583334;stroke-miterlimit:4;stroke-dasharray:none;stroke-opacity:1" />
      <path
         sodipodi:nodetypes="ccccccscccccccscccccccccccccscccccccccssccsccccssscccscscscscssscccccccsssccscccscscscccccccscscscccscccccccccscccsscsscsssscssccscccscssssccsccsccccccsssccccscscsccssscccccs"
         inkscape:connector-curvature="0"
         id="path1701-2-8-9"
         d="m -865.47951,60.146987 c 1.08268,-0.179369 3.0688,-0.73465 3.03802,-0.849392 -0.0234,-0.087 -1.26083,-1.451909 -1.78508,-1.968775 -2.5553,-2.519405 -4.7449,-3.043616 -6.88235,-1.647714 -0.33307,0.217514 -0.85608,0.614214 -0.94049,0.713351 -0.0436,0.0512 0.56189,1.124582 0.89213,1.581441 0.92149,1.274789 1.8492,1.871509 3.37874,2.173269 0.74583,0.147161 1.40124,0.146529 2.29903,-0.0021 z m 6.04227,-3.213407 c 0.82491,-0.141544 1.68362,-0.41207 2.77943,-0.875631 0.39236,-0.165981 0.77965,-0.338201 0.86066,-0.382701 l 0.14729,-0.0809 -0.43157,-0.417549 c -2.41212,-2.333789 -4.06524,-3.26943 -5.77655,-3.26943 -1.10944,0 -2.09281,0.443315 -3.17542,1.431515 -0.19186,0.175141 -0.36048,0.358042 -0.37469,0.406469 -0.0331,0.112797 0.3822,0.778422 0.84868,1.360048 0.70309,0.876646 1.52524,1.451046 2.49724,1.744726 0.52128,0.157504 1.93205,0.202364 2.62493,0.0836 z m -14.42935,-0.0799 c 0.89603,-0.41833 1.17866,-1.738161 0.58865,-2.748827 -0.072,-0.123341 -0.2453,-0.289672 -0.41665,-0.399871 -0.27129,-0.174505 -0.32069,-0.186645 -0.65638,-0.161245 -1.96812,0.19847 -1.14436,3.999934 0.48438,3.309943 z m 4.04479,-3.270319 c 2.20339,-0.210851 3.97377,-2.156303 5.38456,-5.917027 0.32782,-0.873864 0.81936,-2.373062 0.79931,-2.437906 -0.0179,-0.0581 -1.10165,0.257638 -2.0104,0.585621 -2.94844,1.064175 -4.59309,2.759946 -5.20936,5.371267 -0.20968,0.888481 -0.36893,2.332265 -0.262,2.37532 0.12565,0.0506 0.87034,0.06361 1.29789,0.02273 z m 14.62127,-0.99246 c 0.82317,-0.139951 2.11474,-0.681672 2.80913,-1.178213 0.11397,-0.08153 0.37301,-0.263903 0.57563,-0.405331 0.40091,-0.279834 2.18727,-1.812914 2.18738,-1.877245 3e-5,-0.02178 -0.1191,-0.09441 -0.26474,-0.161306 -0.14563,-0.067 -0.586,-0.269513 -0.97858,-0.450168 -1.49089,-0.686054 -2.40587,-0.938429 -3.57522,-0.986139 -0.67897,-0.02776 -0.92014,-0.01429 -1.28944,0.07145 -1.16775,0.271248 -2.08741,0.917779 -2.92117,2.053614 -0.34561,0.470831 -0.73365,1.103249 -0.73365,1.195689 0,0.06454 0.0943,0.160525 0.52959,0.538877 0.96381,0.837763 1.74292,1.169114 2.83215,1.204497 0.36725,0.01193 0.74027,0.0094 0.82892,-0.0059 z M -861.8077,50.7437 c 1.05761,-0.724424 1.89317,-1.804035 2.38232,-3.078181 0.24081,-0.627264 0.47994,-1.596745 0.59399,-2.408203 0.087,-0.619088 0.10142,-0.936485 0.10227,-2.25478 5.3e-4,-0.856294 -0.0237,-1.786863 -0.0548,-2.105866 -0.13905,-1.42349 -0.20748,-2.019059 -0.23697,-2.062282 -0.0672,-0.09851 -1.70189,2.023325 -2.31085,2.999658 -0.67679,1.085104 -1.24247,2.402684 -1.48327,3.45485 -0.32544,1.422017 -0.27477,2.934938 0.14844,4.432612 0.14723,0.520989 0.3935,1.194449 0.45493,1.244055 0.0202,0.0163 0.202,-0.08352 0.40398,-0.221863 z m 11.25834,-3.747569 c 1.4347,-0.357677 2.76004,-1.27041 4.15361,-2.860487 0.58658,-0.669293 1.6985,-2.111772 1.68093,-2.180635 -0.0333,-0.130593 -2.0764,-0.483902 -3.18659,-0.551069 -1.1124,-0.06723 -2.26461,0.162089 -3.16714,0.63051 -1.16529,0.604806 -2.12205,1.805101 -2.77348,3.479472 -0.2402,0.617376 -0.26727,0.55082 0.37331,0.917871 0.72925,0.417862 1.21249,0.55204 2.06742,0.574064 0.40525,0.01053 0.78862,0.0059 0.85194,-0.0094 z m -4.87026,-0.87993 c 1.06649,-1.557131 1.50955,-3.01149 1.50762,-4.948778 -0.002,-1.644496 -0.303,-3.248742 -1.00026,-5.324834 -0.30343,-0.903449 -0.79292,-2.166038 -0.83975,-2.166038 -0.0581,0 -1.23271,3.130669 -1.40204,3.73693 -0.40815,1.461344 -0.53666,2.253504 -0.56593,3.488354 -0.019,0.800526 -0.008,1.104032 0.0568,1.534279 0.20378,1.358445 0.6905,2.539365 1.52029,3.688625 0.16984,0.235228 0.33483,0.427678 0.36665,0.427678 0.0318,0 0.1923,-0.196292 0.35662,-0.436216 z m 4.56933,-5.503209 c 0.25021,-0.44241 0.69962,-1.670222 0.83215,-2.273448 0.58196,-2.648982 -0.10649,-5.530239 -2.19179,-9.172914 -0.30393,-0.530934 -0.56754,-0.965065 -0.58579,-0.96475 -0.0183,2.38e-4 -0.1019,0.291383 -0.18589,0.646803 -0.65295,2.762998 -0.88354,4.464558 -0.82142,6.061313 0.0563,1.445723 0.32116,2.550951 0.8797,3.670226 0.24236,0.485669 1.11629,1.611654 1.55493,2.003409 l 0.35527,0.317291 z m 3.93878,-0.168754 c 1.68688,-0.420288 3.18644,-1.870956 4.72051,-4.566613 0.44706,-0.785569 1.09914,-2.078572 1.06847,-2.118659 -0.0384,-0.05014 -2.11256,0.09757 -2.68032,0.190873 -2.07291,0.340728 -3.43245,1.093404 -4.42884,2.451915 -0.42365,0.577633 -0.7314,1.162026 -0.97894,1.858923 -0.19827,0.558202 -0.40436,1.332454 -0.44666,1.678117 -0.0277,0.226337 -0.0269,0.227793 0.17224,0.297828 0.55403,0.194918 0.86012,0.249624 1.51456,0.270661 0.49433,0.01593 0.81993,-0.0036 1.05898,-0.06302 z m 0.71399,-6.951152 c 2.32427,-0.258138 4.09536,-2.27099 5.82065,-6.61524 0.25475,-0.641455 0.45639,-1.175178 0.44807,-1.186039 -0.0279,-0.03655 -1.77128,0.337791 -2.31882,0.497856 -2.92909,0.856257 -4.57549,2.44312 -5.29321,5.101785 -0.13332,0.493864 -0.27415,1.264603 -0.31616,1.730291 -0.0289,0.319802 -0.0247,0.339828 0.0777,0.372684 0.32882,0.105537 1.09124,0.153141 1.5818,0.09863 z m -2.08302,-2.392529 c 0.40297,-1.134356 0.55862,-2.023991 0.55462,-3.170002 -0.003,-0.880917 -0.0736,-1.406451 -0.31898,-2.37761 -0.2873,-1.137004 -0.9932,-2.680806 -1.81529,-3.970075 -0.39305,-0.616426 -1.5102,-2.166041 -1.56153,-2.166041 -0.0201,0 -0.0486,0.08797 -0.0633,0.195543 -0.0147,0.107532 -0.0891,0.631754 -0.16526,1.1649 -0.20123,1.407758 -0.28113,2.430624 -0.28345,3.62857 -0.005,2.601788 0.47824,4.311181 1.62938,5.763223 0.53278,0.672052 1.51007,1.521962 1.75006,1.521962 0.036,0 0.15568,-0.258124 0.27374,-0.59047 z m 2.56656,-4.711192 c 1.16505,-0.41606 1.95545,-0.995252 2.67959,-1.963539 1.07783,-1.441225 1.73061,-3.578381 2.01697,-6.603431 0.0631,-0.666843 0.16985,-2.376189 0.14998,-2.402158 -0.0253,-0.03303 -1.30311,0.982541 -1.83018,1.454719 -0.80654,0.72254 -1.25347,1.198129 -1.796,1.911144 -0.98425,1.293542 -1.54882,2.627712 -1.73089,4.090373 -0.10884,0.874303 -0.0419,2.263146 0.15663,3.248978 0.0655,0.325091 0.10339,0.353383 0.3539,0.263914 z m -1.0402,-4.57377 c 0.2138,-0.975958 0.27161,-2.325169 0.13925,-3.249507 -0.29243,-2.042099 -1.23927,-3.831177 -3.00812,-5.683954 -0.52175,-0.546499 -2.02706,-1.88876 -2.1182,-1.88876 -0.0378,0 -0.0475,0.08844 -0.0316,0.285795 0.0127,0.157181 0.0349,0.732534 0.0493,1.278565 0.12328,4.657847 1.16847,7.474474 3.29252,8.872805 0.40475,0.266454 1.13898,0.610243 1.43624,0.672465 l 0.16983,0.03549 z m 1.54706,-4.827651 c 1.59103,-1.563783 2.32872,-3.742132 2.24229,-6.621362 -0.0416,-1.3872397 -0.20404,-2.5961207 -0.59472,-4.4272857 -0.10237,-0.479838 -0.19629,-0.933755 -0.20871,-1.008698 -0.0124,-0.07496 -0.0395,-0.149918 -0.0601,-0.166611 -0.0674,-0.05447 -1.10566,1.68402 -1.64846,2.760261 -1.40514,2.7859797 -1.79063,5.1284447 -1.21947,7.4100947 0.21582,0.86214 0.86268,2.381671 1.03128,2.422562 0.0364,0.0094 0.24248,-0.157194 0.45793,-0.368961 z m -3.33666,-5.950784 c 0.0448,-0.152709 -0.0649,-1.5959817 -0.16154,-2.1242337 -0.2391,-1.307062 -0.64212,-2.246227 -1.40106,-3.264918 -1.02251,-1.372468 -2.46965,-2.409711 -4.65921,-3.339531 -0.356,-0.151173 -0.68472,-0.293643 -0.73049,-0.31659 -0.0736,-0.0369 -0.0793,-0.01852 -0.0494,0.159477 0.0186,0.110692 0.15351,0.676529 0.29979,1.257502 0.72138,2.865151 1.43379,4.556154 2.45074,5.817171 0.97017,1.2030097 2.08175,1.7744017 3.63744,1.8697707 0.50687,0.03104 0.5897,0.0232 0.61373,-0.05869 z m 1.19109,-3.6610417 c 0.66982,-0.943734 1.10903,-2.005364 1.36344,-3.295618 0.0287,-0.145386 0.0706,-0.578594 0.0931,-0.962676 0.1,-1.703396 -0.19573,-3.48623097 -0.94211,-5.67969 -0.28703,-0.843551 -0.82633,-2.231435 -0.95922,-2.468584 -0.0548,-0.0978 -0.11117,0.02378 -0.52961,1.143191 -0.97169,2.59947 -1.39003,4.42228203 -1.39253,6.067648 -0.003,1.973017 0.49122,3.532698 1.58918,5.015228 l 0.46256,0.624557 z m -3.16781,-4.698214 c 0.0629,-0.132948 0.0767,-1.70725897 0.0194,-2.21877197 -0.31132,-2.78181103 -1.77374,-4.94113803 -4.59568,-6.78567903 -0.64772,-0.423392 -1.62263,-0.992183 -1.64669,-0.960732 -0.027,0.03525 0.31997,2.239095 0.45774,2.907824 0.72623,3.52523503 1.90895,5.617084 3.69035,6.52707 0.50254,0.256712 1.07799,0.444979 1.56246,0.511196 0.15198,0.02074 0.32167,0.05001 0.37711,0.0649 0.0554,0.01487 0.11632,-0.0059 0.1353,-0.0458 z"
         style="fill:#808000;stroke-width:0.05263832" />
      <path
         id="path1021-2-9-7-9"
         d="m -982.92709,-25.791663 -14.55208,15.8750003 h -10.58333 c 0,27.7812507 -10.5833,89.9583357 63.49999,119.0625027 l 23.8125,47.625 v -3.96875 l -21.16666,-46.30208 C -1017.3229,80.041673 -1004.0938,13.895881 -1005.4167,-7.2708297 h 10.58336 l 14.55208,-15.8750003 h 59.53125 v -2.645833 z"
         style="fill:#800000;stroke:none;stroke-width:0.26846528px;stroke-linecap:butt;stroke-linejoin:miter;stroke-opacity:1"
         inkscape:connector-curvature="0" />
      <path
         sodipodi:nodetypes="cccccc"
         inkscape:connector-curvature="0"
         id="rect973-7-9"
         d="m -1015.2063,100.67916 21.16671,6.87916 -21.16671,6.87918 42.86254,-0.52608 v -12.7062 z"
         style="opacity:1;fill:#808000;stroke:none;stroke-width:2.07089376;stroke-miterlimit:4;stroke-dasharray:none;stroke-opacity:1" />
      <text
         id="text902-2-4"
         y="55.390644"
         x="-947.21069"
         style="font-style:normal;font-variant:normal;font-weight:normal;font-stretch:normal;font-size:86.0530777px;line-height:53.78278732px;font-family:Arial;-inkscape-font-specification:'Arial, Normal';font-variant-ligatures:normal;font-variant-caps:normal;font-variant-numeric:normal;font-feature-settings:normal;text-align:start;letter-spacing:0px;word-spacing:0px;writing-mode:lr-tb;text-anchor:start;fill:#808000;fill-opacity:1;stroke:none;stroke-width:2.1513114"
         xml:space="preserve"><tspan
           style="font-style:normal;font-variant:normal;font-weight:normal;font-stretch:normal;font-size:86.0530777px;font-family:Arial;-inkscape-font-specification:'Arial, Normal';font-variant-ligatures:normal;font-variant-caps:normal;font-variant-numeric:normal;font-feature-settings:normal;text-align:start;writing-mode:lr-tb;text-anchor:start;fill:#808000;stroke-width:2.1513114"
           y="55.390644"
           x="-947.21069"
           id="tspan900-0-4"
           sodipodi:role="line">T</tspan></text>
      <text
         transform="scale(0.98042138,1.0199696)"
         id="text898-07-8"
         y="45.923405"
         x="-980.41101"
         style="font-style:normal;font-variant:normal;font-weight:normal;font-stretch:normal;font-size:58.6338501px;line-height:36.64578247px;font-family:Arial;-inkscape-font-specification:'Arial, Normal';font-variant-ligatures:normal;font-variant-caps:normal;font-variant-numeric:normal;font-feature-settings:normal;text-align:start;letter-spacing:0px;word-spacing:0px;writing-mode:lr-tb;text-anchor:start;fill:#800000;fill-opacity:1;stroke:none;stroke-width:1.46583116"
         xml:space="preserve"><tspan
           style="font-style:normal;font-variant:normal;font-weight:normal;font-stretch:normal;font-size:58.6338501px;font-family:Arial;-inkscape-font-specification:'Arial, Normal';font-variant-ligatures:normal;font-variant-caps:normal;font-variant-numeric:normal;font-feature-settings:normal;text-align:start;writing-mode:lr-tb;text-anchor:start;fill:#800000;stroke-width:1.46583116"
           y="45.923405"
           x="-980.41101"
           id="tspan896-7-4"
           sodipodi:role="line">E</tspan></text>
      <text
         id="text906-82-9"
         y="45.295033"
         x="-918.15558"
         style="font-style:normal;font-variant:normal;font-weight:normal;font-stretch:normal;font-size:59.59713364px;line-height:37.24835968px;font-family:Arial;-inkscape-font-specification:'Arial, Normal';font-variant-ligatures:normal;font-variant-caps:normal;font-variant-numeric:normal;font-feature-settings:normal;text-align:start;letter-spacing:0px;word-spacing:0px;writing-mode:lr-tb;text-anchor:start;fill:#800000;fill-opacity:1;stroke:none;stroke-width:1.48993433"
         xml:space="preserve"><tspan
           style="font-style:normal;font-variant:normal;font-weight:normal;font-stretch:normal;font-size:59.59713364px;font-family:Arial;-inkscape-font-specification:'Arial, Normal';font-variant-ligatures:normal;font-variant-caps:normal;font-variant-numeric:normal;font-feature-settings:normal;text-align:start;writing-mode:lr-tb;text-anchor:start;fill:#800000;stroke-width:1.48993433"
           y="45.295033"
           x="-918.15558"
           id="tspan904-6-4"
           sodipodi:role="line">S</tspan></text>
      <text
         id="text1019-6-9"
         y="-11.054953"
         x="-952.09668"
         style="font-style:normal;font-variant:normal;font-weight:normal;font-stretch:normal;font-size:6.82089329px;line-height:6.39458752px;font-family:'Franklin Gothic Heavy';-inkscape-font-specification:'Franklin Gothic Heavy, Normal';font-variant-ligatures:normal;font-variant-caps:normal;font-variant-numeric:normal;font-feature-settings:normal;text-align:center;letter-spacing:0px;word-spacing:0px;writing-mode:lr-tb;text-anchor:middle;fill:#800000;fill-opacity:1;stroke:none;stroke-width:0.2557835"
         xml:space="preserve"
         transform="scale(0.96674086,1.0344034)"><tspan
           style="font-style:normal;font-variant:normal;font-weight:normal;font-stretch:normal;font-size:6.82089329px;font-family:'Franklin Gothic Heavy';-inkscape-font-specification:'Franklin Gothic Heavy, Normal';font-variant-ligatures:normal;font-variant-caps:normal;font-variant-numeric:normal;font-feature-settings:normal;text-align:center;writing-mode:lr-tb;text-anchor:middle;fill:#800000;stroke-width:0.2557835"
           y="-11.054953"
           x="-952.09668"
           id="tspan1017-9-1"
           sodipodi:role="line">Escuela de Trabajo Social de Zacatecas</tspan></text>
      <path
         sodipodi:nodetypes="ccccccscccccccscccccccccccccscccccccccssccsccccssscccscscscscssscccccccsssccscccscscscccccccscscscccscccccccccscccsscsscsssscssccscccscssssccsccsccccccsssccccscscsccssscccccs"
         inkscape:connector-curvature="0"
         id="path1701-2-82"
         d="m -970.07146,60.146971 c -1.08268,-0.179369 -3.0688,-0.73465 -3.03802,-0.849389 0.0234,-0.087 1.26083,-1.451912 1.78509,-1.968778 2.55529,-2.519405 4.74489,-3.043616 6.88234,-1.647711 0.33308,0.217511 0.85609,0.614211 0.9405,0.713351 0.0436,0.0512 -0.5619,1.124579 -0.89213,1.581438 -0.9215,1.274789 -1.84921,1.871509 -3.37875,2.173269 -0.74583,0.147161 -1.40124,0.146529 -2.29903,-0.0021 z m -6.04227,-3.213407 c -0.82491,-0.141542 -1.68362,-0.41207 -2.77943,-0.875631 -0.39236,-0.165981 -0.77965,-0.338201 -0.86066,-0.382701 l -0.14729,-0.0809 0.43157,-0.417552 c 2.41212,-2.333787 4.06524,-3.269427 5.77655,-3.269427 1.10944,0 2.09281,0.443314 3.17542,1.431515 0.19186,0.175138 0.36048,0.358042 0.37469,0.406466 0.0331,0.1128 -0.3822,0.778425 -0.84868,1.360051 -0.70308,0.876646 -1.52524,1.451046 -2.49724,1.744726 -0.52128,0.157501 -1.93205,0.202361 -2.62493,0.0836 z m 14.42935,-0.0799 c -0.89603,-0.41833 -1.17866,-1.738164 -0.58865,-2.748828 0.072,-0.123343 0.2453,-0.289673 0.41665,-0.399872 0.27129,-0.174506 0.3207,-0.186643 0.65639,-0.161245 1.96811,0.198469 1.14436,3.999936 -0.48439,3.309945 z m -4.04479,-3.27032 c -2.20339,-0.210852 -3.97377,-2.156304 -5.38456,-5.917026 -0.32782,-0.873866 -0.81935,-2.373061 -0.79931,-2.437908 0.0179,-0.0581 1.10165,0.257638 2.0104,0.585624 2.94844,1.064173 4.59309,2.759943 5.20936,5.371264 0.20968,0.888484 0.36893,2.332265 0.262,2.375323 -0.12564,0.0506 -0.87034,0.06361 -1.29789,0.02273 z m -14.62127,-0.99246 c -0.82317,-0.139952 -2.11474,-0.681673 -2.80913,-1.178214 -0.11397,-0.08153 -0.37301,-0.263903 -0.57563,-0.405331 -0.40091,-0.279834 -2.18727,-1.812914 -2.18738,-1.877245 -3e-5,-0.02178 0.1191,-0.09441 0.26474,-0.161306 0.14563,-0.067 0.586,-0.269513 0.97858,-0.450167 1.49089,-0.686054 2.40587,-0.93843 3.57522,-0.98614 0.67897,-0.02776 0.92014,-0.01429 1.28944,0.07145 1.16775,0.271246 2.08741,0.917779 2.92117,2.053614 0.34562,0.470831 0.73365,1.103249 0.73365,1.195689 0,0.06454 -0.0943,0.160523 -0.52959,0.538877 -0.96381,0.837763 -1.74292,1.169112 -2.83215,1.204497 -0.36725,0.01193 -0.74027,0.0094 -0.82892,-0.0059 z m 6.60717,-1.847202 c -1.05761,-0.724424 -1.89317,-1.804035 -2.38231,-3.078181 -0.24082,-0.627264 -0.47995,-1.596745 -0.594,-2.408203 -0.087,-0.619088 -0.10142,-0.936485 -0.10227,-2.25478 -5.3e-4,-0.856294 0.0237,-1.786863 0.0548,-2.105866 0.13905,-1.42349 0.20748,-2.019059 0.23697,-2.062281 0.0672,-0.09851 1.70189,2.023324 2.31086,2.999658 0.67678,1.085103 1.24247,2.402683 1.48327,3.454849 0.32544,1.422017 0.27476,2.934939 -0.14845,4.432613 -0.14723,0.520988 -0.3935,1.194448 -0.45493,1.244054 -0.0202,0.0163 -0.202,-0.08352 -0.40398,-0.221863 z m -11.25834,-3.747566 c -1.43469,-0.35768 -2.76004,-1.270411 -4.15361,-2.86049 -0.58658,-0.669293 -1.6985,-2.111772 -1.68093,-2.180635 0.0333,-0.130593 2.0764,-0.483902 3.18659,-0.551066 1.1124,-0.06723 2.26461,0.162089 3.16714,0.630507 1.16529,0.604808 2.12205,1.805101 2.77348,3.479472 0.2402,0.617376 0.26727,0.550823 -0.3733,0.917871 -0.72926,0.417865 -1.21249,0.55204 -2.06743,0.574064 -0.40525,0.01053 -0.78862,0.0059 -0.85194,-0.0094 z m 4.87027,-0.879933 c -1.0665,-1.557131 -1.50956,-3.011488 -1.50763,-4.948775 0.002,-1.644499 0.303,-3.248742 1.00026,-5.324835 0.30343,-0.903451 0.79292,-2.166038 0.83975,-2.166038 0.0581,0 1.23271,3.130669 1.40204,3.73693 0.40816,1.461342 0.53666,2.253504 0.56593,3.488352 0.019,0.800528 0.008,1.104035 -0.0568,1.534279 -0.20378,1.358447 -0.69049,2.539367 -1.52029,3.688625 -0.16983,0.235228 -0.33482,0.42768 -0.36665,0.42768 -0.0318,0 -0.19229,-0.196294 -0.35661,-0.436218 z m -4.56934,-5.503207 c -0.25021,-0.442412 -0.69962,-1.670222 -0.83215,-2.273448 -0.58196,-2.648982 0.10649,-5.530241 2.19179,-9.172913 0.30394,-0.530934 0.56754,-0.965068 0.58579,-0.964751 0.0183,2.36e-4 0.1019,0.291383 0.18589,0.646801 0.65295,2.763001 0.88354,4.464558 0.82142,6.061313 -0.0563,1.445726 -0.32115,2.550951 -0.8797,3.670226 -0.24236,0.485669 -1.11629,1.611654 -1.55493,2.003409 l -0.35527,0.317291 z m -3.93878,-0.168753 c -1.68688,-0.420288 -3.18644,-1.870957 -4.72051,-4.566614 -0.44706,-0.785571 -1.09914,-2.078574 -1.06847,-2.118659 0.0384,-0.05014 2.11256,0.09757 2.68032,0.190871 2.07291,0.34073 3.43245,1.093406 4.42885,2.451915 0.42364,0.577633 0.73139,1.162026 0.97893,1.858925 0.19827,0.558202 0.40436,1.332455 0.44666,1.678117 0.0277,0.226338 0.0269,0.227791 -0.17224,0.297826 -0.55403,0.194921 -0.86012,0.249624 -1.51456,0.270661 -0.49433,0.01593 -0.81993,-0.0036 -1.05898,-0.06302 z m -0.71399,-6.951155 c -2.32427,-0.258138 -4.09536,-2.27099 -5.82065,-6.615237 -0.25475,-0.641458 -0.45639,-1.175181 -0.44807,-1.18604 0.0279,-0.03655 1.77128,0.337791 2.31882,0.497856 2.92909,0.856258 4.57549,2.443118 5.29321,5.101786 0.13332,0.493861 0.27415,1.2646 0.31616,1.730288 0.0289,0.319802 0.0247,0.339831 -0.0777,0.372687 -0.32882,0.105537 -1.09124,0.15314 -1.5818,0.09863 z m 2.08303,-2.392529 c -0.40298,-1.134356 -0.55863,-2.023989 -0.55463,-3.170002 0.003,-0.880917 0.0736,-1.406451 0.31898,-2.377607 0.2873,-1.137007 0.9932,-2.680806 1.81529,-3.970075 0.39305,-0.616429 1.5102,-2.166038 1.56153,-2.166038 0.0201,0 0.0486,0.08797 0.0633,0.195543 0.0147,0.107529 0.0891,0.631751 0.16526,1.164897 0.20123,1.407758 0.28113,2.430621 0.28345,3.628569 0.005,2.601789 -0.47824,4.311182 -1.62938,5.763221 -0.53278,0.672055 -1.51007,1.521965 -1.75006,1.521965 -0.036,0 -0.15568,-0.258127 -0.27374,-0.590473 z m -2.56657,-4.711192 c -1.16505,-0.416057 -1.95545,-0.995249 -2.67959,-1.963537 -1.07783,-1.441227 -1.73061,-3.578381 -2.01697,-6.603431 -0.0631,-0.666842 -0.16985,-2.376188 -0.14998,-2.402157 0.0253,-0.03303 1.30311,0.982541 1.83019,1.454719 0.80653,0.72254 1.25346,1.198128 1.79599,1.911143 0.98425,1.293546 1.54882,2.627712 1.73089,4.090374 0.10884,0.8743 0.0419,2.263143 -0.15663,3.248975 -0.0655,0.325093 -0.10339,0.353383 -0.3539,0.263914 z m 1.0402,-4.57377 c -0.2138,-0.975958 -0.27161,-2.325166 -0.13925,-3.249504 0.29243,-2.042099 1.23927,-3.831177 3.00812,-5.683954 0.52175,-0.5465 2.02706,-1.88876 2.1182,-1.88876 0.0378,0 0.0475,0.08844 0.0316,0.285795 -0.0127,0.157181 -0.0349,0.732533 -0.0493,1.278565 -0.12328,4.657846 -1.16847,7.474471 -3.29252,8.872804 -0.40475,0.266454 -1.13898,0.610243 -1.43624,0.672465 l -0.16983,0.03549 z m -1.54706,-4.827649 c -1.59103,-1.563782 -2.32872,-3.742131 -2.24229,-6.621362 0.0416,-1.3872387 0.20404,-2.5961197 0.59472,-4.4272857 0.10237,-0.479837 0.19629,-0.933754 0.20871,-1.008697 0.0124,-0.07496 0.0395,-0.149918 0.0601,-0.166611 0.0674,-0.05447 1.10566,1.68402 1.64846,2.76026 1.40514,2.7859807 1.79063,5.1284457 1.21947,7.4100957 -0.21582,0.862139 -0.86268,2.381671 -1.03128,2.422562 -0.0364,0.0094 -0.24248,-0.157194 -0.45793,-0.368962 z m 3.33666,-5.950783 c -0.0448,-0.15271 0.0649,-1.5959827 0.16154,-2.1242337 0.2391,-1.307063 0.64212,-2.246228 1.40106,-3.264918 1.02251,-1.372468 2.46965,-2.409712 4.65921,-3.339532 0.356,-0.151172 0.68472,-0.293642 0.73049,-0.316589 0.0736,-0.0369 0.0793,-0.01852 0.0494,0.159477 -0.0186,0.110691 -0.15351,0.676529 -0.29979,1.257501 -0.72138,2.865152 -1.43379,4.556154 -2.45074,5.817172 -0.97017,1.2030097 -2.08175,1.7744007 -3.63744,1.8697707 -0.50687,0.03104 -0.5897,0.0232 -0.61373,-0.05869 z m -1.19109,-3.6610417 c -0.66982,-0.943735 -1.10903,-2.005365 -1.36344,-3.295618 -0.0287,-0.145386 -0.0706,-0.578594 -0.0931,-0.962676 -0.1,-1.703396 0.19573,-3.48623097 0.94211,-5.67969 0.28703,-0.843551 0.82633,-2.231435 0.95922,-2.468584 0.0548,-0.0978 0.11117,0.02378 0.52961,1.143191 0.97169,2.599469 1.39003,4.42228203 1.39253,6.067648 0.003,1.973016 -0.49122,3.532698 -1.58918,5.015227 l -0.46256,0.624557 z m 3.16781,-4.698214 c -0.0629,-0.132946 -0.0767,-1.70725897 -0.0194,-2.21877197 0.31133,-2.78181103 1.77375,-4.94113803 4.59569,-6.78567903 0.64772,-0.423392 1.62263,-0.992183 1.64669,-0.960732 0.027,0.03525 -0.31997,2.239095 -0.45774,2.907824 -0.72623,3.52523503 -1.90895,5.617083 -3.69035,6.52707 -0.50254,0.256712 -1.07799,0.444979 -1.56246,0.511196 -0.15198,0.02074 -0.32167,0.05001 -0.37712,0.0649 -0.0554,0.01487 -0.11631,-0.0059 -0.1353,-0.0458 z"
         style="fill:#808000;stroke-width:0.05263832" />
      <text
         transform="scale(1.0112409,0.98888406)"
         id="text1019-2-4-5"
         y="133.9781"
         x="-910.54004"
         style="font-style:normal;font-variant:normal;font-weight:bold;font-stretch:normal;font-size:7.65217495px;line-height:7.17391396px;font-family:Arial;-inkscape-font-specification:'Arial, Bold';font-variant-ligatures:normal;font-variant-caps:normal;font-variant-numeric:normal;font-feature-settings:normal;text-align:center;letter-spacing:0px;word-spacing:0px;writing-mode:lr-tb;text-anchor:middle;fill:#808000;fill-opacity:1;stroke:none;stroke-width:0.28695655"
         xml:space="preserve"><tspan
           style="font-style:normal;font-variant:normal;font-weight:bold;font-stretch:normal;font-size:7.65217495px;font-family:Arial;-inkscape-font-specification:'Arial, Bold';font-variant-ligatures:normal;font-variant-caps:normal;font-variant-numeric:normal;font-feature-settings:normal;text-align:center;writing-mode:lr-tb;text-anchor:middle;fill:#808000;stroke-width:0.28695655"
           y="133.9781"
           x="-910.54004"
           id="tspan1017-7-3-4"
           sodipodi:role="line">1994</tspan></text>
      <path
         id="path930-5-7"
         d="m -1019.7042,100.14996 23.81253,7.40833 -23.81253,7.40833 47.62503,-0.52916 v -0.52917 l -43.12713,0.52917 21.16671,-6.87917 -21.16671,-6.87917 43.12713,0.52917 v -0.52917 z"
         style="fill:#445016;stroke:none;stroke-width:0.26458332px;stroke-linecap:butt;stroke-linejoin:miter;stroke-opacity:1"
         inkscape:connector-curvature="0" />
      <path
         id="path977-6-2"
         d="m -989.54167,104.11871 c -4.17289,0 -5.65927,1.17489 -5.02709,2.20141 v 13.409 c -0.0678,2.41555 2.23653,2.71904 5.29167,2.64584 h 1.85208 0.52917 66.14583 v -0.52917 h -66.14583 -0.52917 -2.11666 c -3.43959,0 -4.49792,-0.79374 -4.49792,-1.85208 v -13.15372 c 0.81509,0.55967 2.3532,0.98288 4.49792,0.98288 h 4.40645 2.20813 14.02292 1.41438 46.73978 v -0.52916 h -43.91772 c -0.58871,-0.18114 -1.32603,4e-5 -2.38436,-0.30076 -1.56661,-0.25225 -3.0722,-0.58652 -4.49792,-1.02216 l -0.60461,-1.85208 h -10.77247 -2.20813 z"
         style="fill:#445016;stroke:none;stroke-width:0.41216159px;stroke-linecap:butt;stroke-linejoin:miter;stroke-opacity:1"
         inkscape:connector-curvature="0" />
      <path
         sodipodi:nodetypes="cssccccccccsc"
         inkscape:connector-curvature="0"
         id="rect1026-9-7"
         d="m -994.03959,106.76458 v 13.15371 c 0,1.05835 1.05833,1.8521 4.49792,1.8521 h 2.11666 0.52917 66.14585 v -14.02293 h -46.7398 -1.41438 -14.02292 -2.20813 -4.40645 c -2.14472,0 -3.68284,-0.42321 -4.49792,-0.98288 z"
         style="opacity:1;fill:#808000;stroke:none;stroke-width:0.10583334;stroke-miterlimit:4;stroke-dasharray:none;stroke-opacity:1" />
      <path
         sodipodi:nodetypes="cccccc"
         inkscape:connector-curvature="0"
         id="rect973-7-8-1"
         d="m -826.29376,100.67921 -21.16667,6.87916 21.16667,6.87918 -42.8625,-0.52608 v -12.7062 z"
         style="opacity:1;fill:#808000;stroke:none;stroke-width:2.07089376;stroke-miterlimit:4;stroke-dasharray:none;stroke-opacity:1" />
      <path
         id="path977-6-1-8"
         d="m -851.95835,104.11876 c 4.17289,0 5.65927,1.17489 5.02709,2.20141 v 13.409 c 0.0678,2.41555 -2.23653,2.71904 -5.29167,2.64584 h -1.85208 -0.52917 -66.14583 v -0.52917 h 66.14583 0.52917 2.11666 c 3.43959,0 4.49792,-0.79374 4.49792,-1.85208 v -13.15372 c -0.81509,0.55967 -2.3532,0.98288 -4.49792,0.98288 h -4.40645 -2.20813 -14.02292 -1.41438 -46.73978 v -0.52916 h 43.91773 c 0.5887,-0.18114 1.32602,4e-5 2.38435,-0.30076 1.56662,-0.25225 3.0722,-0.58652 4.49792,-1.02216 l 0.60461,-1.85208 h 10.77247 2.20813 z"
         style="fill:#445016;stroke:none;stroke-width:0.41216159px;stroke-linecap:butt;stroke-linejoin:miter;stroke-opacity:1"
         inkscape:connector-curvature="0" />
      <path
         id="path1883-4-2"
         d="m -911.63066,52.333761 c -4.66047,-0.02655 -9.39894,0.619419 -14.41101,2.572452 -2.44171,-1.627807 -5.88477,-2.25416 -9.94152,-2.289784 -0.27044,-0.0024 -0.54379,-0.0021 -0.81958,5.29e-4 -15.75927,0.157441 -40.04716,8.490424 -51.41599,2.289255 l 16.66875,51.064577 c 19.05,5.82083 52.12292,-6.085417 60.58959,0.52917 l -0.26458,-1.05834 h 0.0527 l 0.21187,1.05834 c 8.73125,-8.202087 52.49659,6.28969 61.11875,-2.38125 l -16.66874,-50.535414 c -17.85937,4.960937 -31.13884,-1.169903 -45.12024,-1.249535 z m -1.34979,1.416966 c 14.28308,-0.09787 32.35617,6.422348 43.29503,1.155486 -12.69999,6.879166 -39.68749,-3.704167 -55.03334,1.322916 3.34865,-1.798338 7.36594,-2.448441 11.73831,-2.478402 z m -26.32553,0.09509 c 2.88003,-0.0072 5.86239,0.20438 8.96949,0.731221 1.06237,0.134311 2.05859,0.32738 2.9719,0.593762 -1.00372,-0.231627 -1.99375,-0.427905 -2.9719,-0.593762 -13.71045,-1.73332 -38.7996,6.677382 -48.62185,3.239596 12.65039,1.897559 24.7968,-3.933601 39.65236,-3.970817 z m 72.53098,0.795817 16.13958,49.212486 c -2.88671,2.20944 -8.12082,2.79126 -14.34848,2.62672 3.49825,-0.19219 7.35627,-0.97899 10.37973,-3.15588 L -869.95,55.699962 Z m -69.96576,0.583422 c 3.54649,0.01511 6.97263,0.499544 10.22728,1.763199 l 0.0289,0.116271 c -16.69189,-4.209841 -24.84497,2.919831 -44.03348,2.202969 -1.9433,-0.0079 -3.8771,-0.137552 -5.79448,-0.432533 2.04359,0.227065 3.96784,0.364291 5.79448,0.432533 11.40186,0.04641 23.12998,-4.127821 33.77727,-4.082439 z m 66.26159,1.004072 15.08125,47.095832 c -4.78007,2.57388 -10.57739,2.97481 -14.56087,2.89181 -10.09077,-0.74368 -21.6642,-2.68112 -30.01057,-2.74919 1.91915,-0.0983 3.87015,-0.10189 5.66581,-0.0305 14.55836,0.57887 31.71952,4.52509 37.58271,-0.37672 -0.44097,-1.85208 -14.58558,-46.443032 -14.55208,-46.302073 z m -65.55259,0.471289 c 3.26308,-0.0072 6.52265,0.380201 9.79888,1.410251 l 0.19121,0.764294 14.4539,45.427198 c -8.0872,-6.982527 -38.96652,2.78543 -54.40599,0.34571 l -13.25913,-42.478018 0.03,-0.11989 -1.05834,-3.175 c 15.90454,5.301517 30.10953,-2.143065 44.2495,-2.174545 z m -50.86408,0.05788 c 0,0 2.38117,0.529288 3.52433,0.864031 0.0367,-0.05298 0.10611,0.04802 0.19431,0.241329 l 14.80219,48.107133 5.31699,0.85059 c -3.46654,-0.0712 -6.27103,-0.44038 -8.01553,-1.27692 z m 72.68859,0.08992 c 13.39838,0.02376 28.04836,4.746286 42.40516,0.439248 L -857.25,103.06037 c -14.57275,4.46898 -32.71302,-0.76504 -44.3606,-0.71727 -4.12115,0.0169 -7.42593,0.69855 -9.47591,2.70165 l -14.10147,-44.317704 h 0.73381 l -0.67954,-2.492354 c 3.52135,-1.031507 7.17491,-1.393129 10.92646,-1.386477 z m -67.92609,1.762165 1.32292,0.264583 14.2875,46.037495 c 5.5733,2.16146 20.64215,0.26003 32.23214,-1.32085 -4.03574,0.78936 -8.33421,1.71251 -12.91756,2.37918 -5.59745,0.51987 -10.9495,0.90882 -15.32413,0.85679 l -5.31337,-1.38596 -13.75833,-44.449985 -0.0961,-0.192236 c -0.15709,-0.861274 -0.43305,-2.189014 -0.43305,-2.189014 z m 59.86353,43.821608 c 0.22041,-0.001 0.44012,3e-5 0.65887,0.004 3.40912,0.0559 6.60949,0.69056 9.36895,2.33939 -1.55936,-0.71415 -4.18633,-0.99279 -7.50497,-0.99528 -6.2467,-0.005 -14.92568,0.96045 -23.46988,1.80816 6.52023,-0.92177 14.11447,-3.12355 20.94703,-3.15589 z"
         style="fill:#808000;stroke:none;stroke-width:0.26458332px;stroke-linecap:butt;stroke-linejoin:miter;stroke-opacity:1"
         inkscape:connector-curvature="0" />
      <path
         sodipodi:nodetypes="ccccccccccccccccccccccccccccccccccccccccccccccccccccccccccscccccccccccccccccccc"
         inkscape:connector-curvature="0"
         id="rect1216-2"
         d="m -910.96041,106.5 -0.21188,-1.05833 h -0.0527 z m -2.02004,-52.749236 c -4.37238,0.02996 -8.38965,0.680064 -11.73829,2.478402 15.34585,-5.027088 42.33333,5.556253 55.03333,-1.322916 -10.93886,5.266859 -29.01196,-1.253385 -43.29504,-1.155486 z m -26.32551,0.09509 c -14.85556,0.03722 -27.00197,5.868377 -39.65237,3.970817 9.82224,3.437789 34.91141,-4.972916 48.62185,-3.239596 -3.10711,-0.526841 -6.08947,-0.738222 -8.96948,-0.731221 z m 8.96948,0.731221 c 0.97816,0.16586 1.96818,0.362133 2.9719,0.593762 -0.91331,-0.26639 -1.90951,-0.459451 -2.9719,-0.593762 z m 63.56148,0.06459 -3.175,1.058334 15.34584,47.625001 c -3.02348,2.17689 -6.88147,2.9637 -10.37974,3.15589 6.22766,0.16452 11.46178,-0.41727 14.34849,-2.62672 z m -69.96574,0.583429 c -10.64728,-0.04538 -22.37543,4.128839 -33.77727,4.082439 19.1885,0.716859 27.34159,-6.412807 44.03349,-2.202969 l -0.0289,-0.116271 c -3.25466,-1.26365 -6.68078,-1.748099 -10.22728,-1.763199 z m -33.77727,4.082439 c -1.82663,-0.06824 -3.7509,-0.205473 -5.79448,-0.432533 1.91738,0.294981 3.85116,0.424532 5.79448,0.432533 z m 100.03885,-3.078367 -0.79375,0.529167 c -0.0335,-0.140949 14.1111,44.450017 14.55208,46.302087 -5.86319,4.90182 -23.02436,0.95558 -37.58271,0.37672 -1.79568,-0.0714 -3.74666,-0.0678 -5.66582,0.0305 8.34639,0.0681 19.91982,2.00551 30.01058,2.74918 3.98349,0.083 9.7808,-0.31792 14.56087,-2.89181 z m -65.55259,0.471289 c -14.13996,0.03148 -28.34497,7.476064 -44.24949,2.174545 l 1.05833,3.175 -0.03,0.11989 13.25915,42.47803 c 15.43947,2.43972 46.31877,-7.328237 54.40597,-0.34571 L -926.04167,58.875 -926.2329,58.110706 c -3.27623,-1.030042 -6.53578,-1.417251 -9.79886,-1.410251 z m -50.86408,0.05788 15.82231,48.786175 c 1.74449,0.83653 4.54897,1.20573 8.01552,1.27693 l -5.317,-0.85061 -14.80219,-48.107134 c -0.0882,-0.19332 -0.15761,-0.29433 -0.19431,-0.241329 -1.14316,-0.334751 -3.52433,-0.864031 -3.52433,-0.864032 z m 72.68858,0.08992 c -3.75155,-0.0066 -7.4051,0.354968 -10.92646,1.386477 l 0.67955,2.492354 h -0.7338 l 14.10145,44.317714 c 2.04999,-2.0031 5.35477,-2.68475 9.47592,-2.70165 11.64756,-0.0478 29.78785,5.18626 44.36059,0.71727 L -871.80208,57.2875 c -14.35679,4.307041 -29.00677,-0.415449 -42.40517,-0.439248 z m -67.92608,1.762165 c 0,0 0.27597,1.327745 0.43305,2.189014 l 0.0961,0.192236 13.75833,44.45 5.31336,1.38596 c 4.37465,0.052 9.72668,-0.33692 15.32414,-0.8568 4.58336,-0.66666 8.88181,-1.58982 12.91757,-2.37918 -11.58999,1.58088 -26.65885,3.48231 -32.23215,1.32085 l -14.2875,-46.037497 z m 59.86354,43.82161 v 5.3e-4 c -6.83257,0.0323 -14.42682,2.23411 -20.94705,3.15589 8.5442,-0.84771 17.22317,-1.81316 23.46988,-1.80816 3.31864,0.002 5.94561,0.28113 7.50496,0.99528 -2.75945,-1.64883 -5.95979,-2.28349 -9.36891,-2.33939 -0.21876,-0.004 -0.43847,-0.005 -0.65888,-0.004 z"
         style="opacity:1;fill:#ffffff;stroke:none;stroke-width:0.10583334;stroke-miterlimit:4;stroke-dasharray:none;stroke-opacity:1" />
      <path
         sodipodi:nodetypes="cccscccccccccccccccccsssccccccccccccscccccccccccscccccccscccccccccccccccsccccccccsccccccccccccccccccccccscccccccccccccccccccscccsccccsccccccscccscccccccccccccccccccscccccccccccccccsscccccccc"
         inkscape:connector-curvature="0"
         id="rect50-9-9"
         d="m -890.0247,60.38209 -0.83114,0.272291 -0.83114,0.272391 v 0.270489 c 0,0.212971 0.0387,0.32403 0.18152,0.52202 0.0997,0.138319 0.21056,0.27723 0.24616,0.308679 0.17408,0.153731 0.63195,0.846042 0.79385,1.200322 0.0582,0.127299 0.0867,0.611039 0.11054,1.877838 l 0.032,1.706382 -0.23901,-0.0357 c -0.1315,-0.01971 -0.51806,-0.0601 -0.85895,-0.09 -0.34086,-0.0299 -0.85517,-0.0924 -1.14305,-0.139091 -1.28741,-0.208579 -4.13267,-0.31114 -4.41658,-0.15919 -0.0631,0.0337 -0.23774,0.18822 -0.38805,0.34317 -0.21811,0.224851 -0.33563,0.296641 -0.58219,0.355791 -0.50046,0.12006 -1.0176,0.617831 -2.00722,1.93221 -0.26807,0.356039 -0.52084,0.660259 -0.56178,0.67596 -0.0944,0.0362 -0.35378,0.421161 -0.5334,0.79162 -0.20745,0.427939 -0.19071,1.00376 0.0417,1.43275 l 0.17126,0.316159 -0.40168,0.55449 c -0.22089,0.30499 -0.47761,0.70775 -0.57057,0.89512 -0.10843,0.2185 -0.33193,0.50334 -0.62327,0.794292 -0.44054,0.43995 -0.45426,0.46177 -0.45426,0.72599 0,0.41694 -0.14668,1.09142 -0.29036,1.33495 -0.1189,0.20151 -0.13005,0.29694 -0.14289,1.22634 -0.009,0.55429 -0.0439,1.11073 -0.0806,1.23649 -0.0644,0.22111 -0.24681,1.00347 -0.42645,1.82904 -0.0479,0.22007 -0.11359,0.69591 -0.14601,1.05745 -0.0325,0.36151 -0.0838,0.76019 -0.11371,0.88595 -0.0301,0.12575 -0.0553,0.27053 -0.0561,0.32174 -0.002,0.14255 0.30318,0.24319 0.58565,0.19313 0.32506,-0.0576 0.50617,-0.0583 1.01969,-0.003 l 0.43482,0.0463 0.2368,-0.21388 0.23665,-0.2138 v -0.73367 c 0,-0.40348 -0.0281,-0.86445 -0.0625,-1.02439 -0.0613,-0.28556 -0.0581,-0.29795 0.17405,-0.68869 l 0.23645,-0.39787 h 0.39218 0.3923 l 0.0417,0.55561 c 0.0254,0.33832 0.0179,0.67923 -0.019,0.87167 -0.3897,2.03165 -0.46872,2.47906 -0.44253,2.50524 0.0168,0.0168 0.0884,-8e-4 0.15909,-0.0393 0.32096,-0.17475 0.33318,-0.20003 0.38201,-0.78681 0.0381,-0.45892 0.0904,-0.67078 0.28256,-1.14773 0.12958,-0.32176 0.23555,-0.61113 0.23555,-0.64305 0,-0.0319 0.0321,-0.0574 0.0715,-0.0566 0.0393,7.9e-4 0.1805,0.24923 0.3137,0.55204 l 0.24214,0.55048 -0.20853,0.51979 -0.20865,0.51967 0.0609,0.60016 c 0.0507,0.49793 0.092,0.65613 0.24225,0.92882 0.0996,0.18075 0.19943,0.32866 0.22183,0.32866 0.0224,0 0.16483,-0.12601 0.31651,-0.27998 l 0.27572,-0.27999 0.44276,0.0303 c 0.50904,0.0349 0.48513,0.062 0.55295,-0.62639 0.0258,-0.26311 0.0866,-0.44449 0.22785,-0.68055 0.22427,-0.37482 0.23191,-0.45937 0.0782,-0.86363 -0.0629,-0.16538 -0.1143,-0.34504 -0.1143,-0.39933 -2e-5,-0.0912 0.26241,-0.31617 0.3108,-0.26637 0.0118,0.0122 0.13642,0.17867 0.27697,0.36997 0.21372,0.29087 0.29803,0.35965 0.5151,0.42043 0.20528,0.0575 0.26735,0.10435 0.29651,0.22383 0.16796,0.68828 0.19514,0.73824 0.41774,0.76706 0.31345,0.0406 0.42947,0.076 0.70543,0.21524 0.13729,0.0692 0.25833,0.13353 0.26894,0.14291 0.0107,0.01 -0.17587,0.29382 -0.41439,0.63218 -0.3321,0.47113 -0.43372,0.66023 -0.43372,0.80737 0,0.18175 -0.0692,0.28044 -0.35791,0.51018 -0.16263,0.12944 -1.0482,0.47118 -1.38541,0.53463 -0.18862,0.0355 -0.38351,0.076 -0.43315,0.0899 -0.16071,0.0452 -0.6998,0.82821 -0.7424,1.0783 -0.0216,0.1274 -0.0842,0.39835 -0.13886,0.60217 -0.0679,0.25306 -0.0907,0.49271 -0.0719,0.75556 0.0312,0.4355 0.007,0.47338 -0.39988,0.63509 -0.72215,0.28678 -0.68322,0.25772 -0.72172,0.53865 -0.0195,0.14283 -0.0356,0.40793 -0.0356,0.58923 0,0.24427 -0.0451,0.43007 -0.17393,0.71738 l -0.17393,0.38771 0.19895,0.19906 c 0.1689,0.16888 0.25354,0.20551 0.55974,0.24258 0.19844,0.024 0.55373,0.12604 0.7895,0.22661 0.32309,0.13784 0.5554,0.19282 0.94311,0.22339 0.41115,0.0325 0.60988,0.0827 0.99,0.25008 0.54263,0.23901 1.1996,0.4285 1.50352,0.43361 0.18738,0.003 0.21062,-0.0137 0.24293,-0.17516 0.0197,-0.0982 0.0357,-0.37477 0.0357,-0.61446 0,-0.43438 5.3e-4,-0.43641 0.21302,-0.60732 0.31505,-0.25359 0.46702,-0.30168 0.94334,-0.29863 0.4782,0.003 0.94159,-0.10026 1.07316,-0.23922 0.0473,-0.05 0.16348,-0.23702 0.25822,-0.41562 0.0947,-0.17863 0.34907,-0.53696 0.56521,-0.79632 l 0.39295,-0.47167 -0.28208,-0.262 c -0.18031,-0.16754 -0.39837,-0.30156 -0.60452,-0.37164 -0.31355,-0.10659 -0.32584,-0.11879 -0.44254,-0.43885 -0.0692,-0.18969 -0.10542,-0.3872 -0.0856,-0.46619 0.0245,-0.0981 -0.007,-0.18698 -0.11347,-0.31292 -0.39447,-0.46882 -0.50126,-1.08645 -0.25432,-1.47126 0.0807,-0.12574 0.30867,-0.50259 0.50661,-0.83741 0.19796,-0.3348 0.4196,-0.67319 0.49255,-0.75186 0.13482,-0.14541 0.32669,-0.79455 0.40155,-1.35885 0.0347,-0.26093 0.0508,-0.28707 0.1592,-0.25619 0.0664,0.0189 0.32326,0.0741 0.57103,0.12257 l 0.45044,0.0882 0.26704,-0.27517 c 0.34282,-0.35321 0.62777,-0.60414 0.8375,-0.73782 0.0916,-0.0584 0.18436,-0.13163 0.20608,-0.16265 0.0258,-0.0367 0.0953,-0.0371 0.20006,-10e-4 0.11382,0.0393 0.21048,0.15243 0.33202,0.38839 l 0.17146,0.3329 0.2322,-0.0305 c 0.32892,-0.0434 0.43244,-10e-4 0.60987,0.24694 0.11125,0.15574 0.21298,0.22929 0.35358,0.25566 0.18625,0.0349 0.20123,0.0552 0.2639,0.35702 0.0906,0.43663 0.36023,1.05154 0.49466,1.12809 0.26423,0.15045 0.53218,0.41408 0.53218,0.52368 0,0.16555 0.3971,0.52336 0.63075,0.56836 0.0704,0.0136 0.17154,0.0641 0.22472,0.11217 0.0637,0.0577 0.21114,0.0874 0.43237,0.0874 0.29398,0 0.35743,0.021 0.50997,0.16813 0.14709,0.14197 0.25119,0.17917 0.66881,0.23924 0.4461,0.0642 0.50775,0.0616 0.62873,-0.0266 0.0738,-0.0538 0.26905,-0.18794 0.43394,-0.29808 0.16488,-0.11019 0.33709,-0.25734 0.3828,-0.3272 0.14906,-0.22781 0.25604,-0.78031 0.29396,-1.51816 l 0.0371,-0.72374 -0.14961,-0.13854 c -0.12884,-0.11928 -0.1497,-0.18548 -0.1497,-0.47536 0,-0.40735 0.0407,-0.49132 0.33825,-0.6975 0.33577,-0.23269 0.35363,-0.41641 0.0939,-0.96399 -0.11348,-0.23904 -0.22785,-0.448 -0.25422,-0.46429 -0.0606,-0.0375 -1.0766,-0.16249 -1.2519,-0.15406 -0.17788,0.009 -0.80581,0.34335 -0.99188,0.52883 -0.0831,0.0829 -0.1692,0.23275 -0.19125,0.33311 -0.0584,0.26612 -0.30479,0.40054 -0.62438,0.34083 -0.29435,-0.0551 -0.64977,-0.23955 -0.79586,-0.41328 -0.33065,-0.3932 -0.90313,-1.01823 -1.60267,-1.7498 -0.43623,-0.45623 -0.94425,-1.03038 -1.12888,-1.27589 -0.32686,-0.43467 -0.33568,-0.45582 -0.33568,-0.80704 0,-0.19839 0.0549,-0.56416 0.12169,-0.81282 0.19023,-0.70677 0.19222,-0.7827 0.03,-1.12039 -0.20375,-0.42389 -0.14632,-0.73025 0.19346,-1.0322 0.13266,-0.1179 0.28294,-0.21427 0.33392,-0.21413 0.0509,1.8e-4 0.19553,0.0637 0.32129,0.14112 0.12574,0.0773 0.26721,0.14121 0.31437,0.14166 0.0471,5.3e-4 0.31633,-0.13517 0.59815,-0.30131 0.38118,-0.22472 0.5495,-0.36251 0.65732,-0.53832 0.0797,-0.129949 0.26662,-0.437225 0.41528,-0.682878 0.23222,-0.383688 0.32891,-0.484698 0.6859,-0.716489 0.22857,-0.148389 0.54413,-0.421788 0.70131,-0.607523 0.17516,-0.206975 0.39644,-0.393086 0.57158,-0.480716 0.15717,-0.0785 0.44013,-0.257511 0.62874,-0.397534 0.323,-0.239776 0.3527,-0.282215 0.50951,-0.729877 l 0.16646,-0.475361 0.75009,-0.358132 c 0.51428,-0.245536 0.77048,-0.40005 0.81494,-0.491537 0.0357,-0.0734 0.12887,-0.27943 0.20721,-0.457939 0.0899,-0.204941 0.29838,-0.49131 0.56557,-0.777001 0.23269,-0.248809 0.4507,-0.527183 0.4846,-0.61857 0.034,-0.0914 0.10551,-0.28907 0.15898,-0.439301 0.14088,-0.395618 0.49484,-0.810522 0.93295,-1.093589 0.21037,-0.13593 0.44035,-0.310039 0.51106,-0.38694 l 0.1285,-0.139761 -0.15707,-0.145467 c -0.0865,-0.08 -0.26413,-0.203873 -0.39486,-0.275424 l -0.23779,-0.13004 -0.17963,0.127931 c -0.14979,0.106712 -0.22302,0.121412 -0.44008,0.0889 -0.23094,-0.0347 -0.31946,-0.0976 -0.78289,-0.556498 -0.2874,-0.28462 -0.74558,-0.706993 -1.01813,-0.938651 l -0.49557,-0.421101 h -0.47334 -0.47334 l -0.24293,0.257212 c -0.26781,0.283509 -0.29141,0.29024 -0.61723,0.176829 -0.23024,-0.0801 -0.43149,-0.270933 -0.43149,-0.409149 0,-0.0421 -0.0299,-0.142189 -0.0663,-0.222263 -0.0595,-0.130678 -0.0991,-0.145608 -0.38582,-0.145798 -0.43489,-2.65e-4 -0.64884,-0.136309 -0.76885,-0.488522 -0.14447,-0.424008 -0.35945,-0.747099 -0.59323,-0.891651 -0.11876,-0.0734 -0.63881,-0.239157 -1.16259,-0.370507 -0.60755,-0.152392 -1.05891,-0.300413 -1.25749,-0.4124 -0.28674,-0.1617 -0.36588,-0.17765 -1.0648,-0.21445 z"
         style="opacity:1;fill:#800000;stroke:none;stroke-width:0.44737726;stroke-miterlimit:4;stroke-dasharray:none;stroke-opacity:1" />
      <path
         sodipodi:nodetypes="ccccccsccccccsccsccccccccscscccccccscsccsccccccsccccccscccscscccsccccsscsscccccccccccccccccscccccscccccccccccscccccccccsccccccccccccccccccccscscccccccccccsccccccscsccsccsccccssccccccccccccsccccccccsccccccccccsccccccccscccsccccsccccscccccccccccscccscccccccsccsscccccscscsccccccccccsccscscccccccccccccccccccccssccscccccsccccccccccc"
         inkscape:connector-curvature="0"
         id="rect66-3-7"
         d="m -961.13121,69.39591 0.0296,0.207632 c 0.0163,0.11421 0.0281,0.25142 0.0264,0.304958 -0.002,0.0536 0.0191,0.14147 0.0463,0.1954 0.0272,0.0539 0.053,0.16405 0.0575,0.244661 0.0113,0.20584 0.0798,0.44559 0.14706,0.514961 0.0313,0.0323 0.057,0.117059 0.057,0.188248 0,0.0729 0.0536,0.21027 0.12273,0.3145 0.11829,0.17839 0.11981,0.186163 0.0403,0.212021 -0.0658,0.0213 -0.0748,0.0448 -0.0443,0.115541 0.021,0.0489 0.0278,0.122698 0.0149,0.164108 -0.0145,0.047 0.0234,0.128302 0.10109,0.216522 0.15041,0.170759 0.24296,0.470508 0.19435,0.629438 -0.0256,0.0836 -0.0203,0.111752 0.0211,0.111752 0.0304,0 0.0941,0.0679 0.14161,0.150749 0.0712,0.12427 0.0823,0.192921 0.0635,0.39084 -0.0126,0.13203 -0.009,0.240059 0.007,0.240059 0.0165,0 0.0708,0.0472 0.12073,0.105061 0.0802,0.0928 0.0879,0.134961 0.0663,0.363439 -0.0145,0.153913 -0.009,0.270613 0.0149,0.288643 0.0217,0.0166 0.0395,0.0785 0.0397,0.13729 0,0.0664 0.0696,0.18123 0.18276,0.30247 0.10033,0.10748 0.21881,0.23938 0.26335,0.29313 0.0445,0.0537 0.12826,0.11969 0.18605,0.14656 0.10936,0.0509 0.36715,0.43411 0.42983,0.63909 0.0199,0.0649 0.0605,0.11813 0.0901,0.11813 0.0297,0 0.0858,0.088 0.1248,0.19542 0.039,0.10746 0.0816,0.19542 0.0946,0.19542 0.013,0 0.0467,0.0646 0.0748,0.14359 0.043,0.12089 0.0418,0.16602 -0.008,0.28576 -0.0437,0.10513 -0.0476,0.15666 -0.015,0.19715 0.0511,0.0635 -0.0249,0.32532 -0.0817,0.28166 -0.0183,-0.0141 -0.055,0.025 -0.0815,0.0866 -0.0859,0.19944 -0.24996,0.28312 -0.48302,0.24628 -0.11414,-0.018 -0.22965,-0.0545 -0.25667,-0.0811 -0.0347,-0.0342 -0.0491,-0.0269 -0.0491,0.0251 0,0.0855 0.20643,0.34951 0.36512,0.46698 0.0603,0.0447 0.1189,0.13645 0.1301,0.20391 0.0336,0.20242 0.0757,0.26649 0.21208,0.32288 0.0715,0.0295 0.16413,0.11199 0.20585,0.1832 0.0417,0.0712 0.10711,0.12948 0.1453,0.12948 0.0409,0 0.11973,0.10059 0.19159,0.24426 0.13418,0.26834 0.20367,0.30053 0.29197,0.13521 l 0.0583,-0.10915 0.16035,0.13816 c 0.0882,0.076 0.26744,0.26795 0.39828,0.42661 0.13083,0.15865 0.26007,0.29189 0.28721,0.29598 0.0271,0.004 0.0759,0.0105 0.10831,0.0123 0.0324,0.002 0.0652,0.0598 0.0728,0.1269 0.008,0.0671 0.0298,0.13452 0.0495,0.14972 0.0197,0.0152 0.071,0.15203 0.11398,0.30409 0.091,0.322 0.10168,0.7981 0.0208,0.9308 -0.0302,0.0494 -0.0667,0.17663 -0.0811,0.28251 -0.0316,0.23284 0.0628,0.45675 0.17693,0.41966 0.0763,-0.0249 0.15795,0.13501 0.15795,0.30934 0,0.10164 0.0956,0.13076 0.13955,0.0425 0.0156,-0.0315 0.0564,0.008 0.10024,0.0981 0.0406,0.0831 0.19338,0.25958 0.33948,0.39226 0.14611,0.13267 0.33427,0.34342 0.41809,0.4683 0.0838,0.12487 0.23931,0.30473 0.34555,0.39961 0.21797,0.19466 0.32367,0.41644 0.36459,0.76505 0.065,0.55365 0.18151,0.60181 0.53084,0.21955 0.17234,-0.18858 0.23422,-0.29185 0.25076,-0.41849 0.0296,-0.22717 -0.0409,-0.39846 -0.19765,-0.47984 -0.0949,-0.0493 -0.13002,-0.0986 -0.13002,-0.18244 0,-0.0632 -0.0205,-0.14029 -0.0455,-0.17138 -0.0345,-0.0429 -0.0336,-0.0743 0.003,-0.12976 0.0593,-0.0887 0.0224,-0.18151 -0.057,-0.14361 -0.0339,0.0163 -0.0682,-0.0105 -0.0839,-0.0632 -0.0327,-0.11167 -0.26951,-0.4081 -0.3259,-0.4081 -0.0227,0 -0.0412,0.0536 -0.0412,0.11918 0,0.0656 -0.0177,0.13291 -0.0393,0.14952 -0.0216,0.0166 -0.0393,0.007 -0.0393,-0.0215 0,-0.0284 -0.0245,-0.0517 -0.0546,-0.0517 -0.19028,0 -0.32119,-0.38354 -0.23625,-0.69226 0.0585,-0.21261 0.0359,-0.36266 -0.0798,-0.52907 -0.0467,-0.0671 -0.11809,-0.25404 -0.15866,-0.41527 -0.0406,-0.16121 -0.0991,-0.31927 -0.13002,-0.35112 -0.0927,-0.0956 -0.24443,-0.50974 -0.24577,-0.67088 -7.9e-4,-0.0828 -0.0272,-0.19317 -0.0589,-0.2453 -0.0706,-0.11605 -0.075,-0.32791 -0.009,-0.41165 0.0394,-0.0496 0.0355,-0.0745 -0.0196,-0.12509 -0.0378,-0.0347 -0.0688,-0.11573 -0.0689,-0.17994 0,-0.10618 -0.11529,-0.23371 -0.4441,-0.49161 -0.0289,-0.0226 -0.0263,-0.0565 0.008,-0.10847 0.0434,-0.0649 0.0268,-0.0872 -0.11821,-0.15934 -0.0927,-0.0462 -0.15015,-0.0915 -0.12764,-0.10082 0.0265,-0.0109 0.0182,-0.10373 -0.0236,-0.26295 -0.0454,-0.17312 -0.10081,-0.27452 -0.18712,-0.34247 -0.16599,-0.13064 -0.25454,-0.30859 -0.22536,-0.45312 0.013,-0.0644 0.004,-0.13176 -0.0188,-0.14972 -0.0234,-0.0179 -0.0425,-0.0959 -0.0425,-0.17336 0,-0.0775 -0.0153,-0.15259 -0.034,-0.16697 -0.0187,-0.0144 -0.0256,-0.0816 -0.0151,-0.14944 0.0148,-0.0961 0.003,-0.12344 -0.0543,-0.12403 -0.12846,-0.001 -0.17573,-0.0758 -0.20386,-0.32155 -0.0227,-0.19833 -0.0425,-0.24222 -0.11545,-0.25515 -0.0554,-0.0105 -0.0881,-0.0495 -0.0881,-0.10705 0,-0.10777 -0.0623,-0.16938 -0.0982,-0.0971 -0.0391,0.0786 -0.10406,0.002 -0.0796,-0.0939 0.0342,-0.13388 -0.11573,-0.49722 -0.29389,-0.7122 -0.0891,-0.10748 -0.19793,-0.26741 -0.24186,-0.35533 -0.0459,-0.092 -0.10686,-0.1542 -0.14345,-0.14656 -0.0373,0.008 -0.0703,-0.0272 -0.0797,-0.0843 -0.009,-0.0537 -0.058,-0.15992 -0.10946,-0.23587 -0.0514,-0.0759 -0.0951,-0.1529 -0.0972,-0.17098 -0.002,-0.0181 -0.009,-0.292112 -0.0162,-0.608953 -0.009,-0.388919 -0.0296,-0.601729 -0.0651,-0.654939 -0.0652,-0.0979 -0.0647,-0.776319 5.3e-4,-0.857599 0.0248,-0.0308 0.0451,-0.106342 0.0451,-0.167852 0,-0.108469 0.007,-0.106199 0.24707,0.0762 0.13591,0.10342 0.33486,0.23609 0.44212,0.29483 0.10725,0.0587 0.26311,0.17457 0.34639,0.257451 0.0833,0.0829 0.2336,0.177249 0.33404,0.209629 l 0.18267,0.0587 -0.0118,0.318691 c -0.009,0.24629 0.006,0.356209 0.0649,0.48432 0.0422,0.0912 0.0891,0.242789 0.10409,0.33683 0.015,0.094 0.0521,0.219679 0.0824,0.279192 0.0303,0.0595 0.0551,0.19344 0.0551,0.2977 0,0.13849 0.0427,0.27184 0.15865,0.49483 0.10223,0.19663 0.15047,0.33747 0.13555,0.39589 -0.0147,0.0576 0.009,0.13086 0.0656,0.20094 0.0636,0.0791 0.0855,0.15647 0.0774,0.27327 -0.01,0.13589 0.0147,0.193 0.14507,0.34408 0.086,0.0995 0.19243,0.27119 0.23664,0.38129 0.0442,0.11008 0.12969,0.24039 0.18997,0.28947 0.13958,0.11371 0.21853,0.22908 0.37679,0.55065 0.10061,0.20446 0.1726,0.28583 0.34347,0.38855 0.11888,0.0714 0.22863,0.15272 0.24393,0.18062 0.0153,0.0279 0.0399,0.16991 0.0545,0.31554 0.0225,0.22429 0.0517,0.29602 0.19066,0.46878 0.0902,0.11221 0.21617,0.21691 0.27977,0.23273 0.088,0.0219 0.14401,0.0906 0.23456,0.28787 0.0654,0.14247 0.16261,0.28384 0.21599,0.3142 0.3376,0.19204 0.41195,0.24905 0.42362,0.3248 0.007,0.0467 -0.0512,0.21394 -0.12957,0.37184 -0.12462,0.251 -0.14103,0.3198 -0.13048,0.54655 0.012,0.25841 0.0127,0.25961 0.18183,0.32947 0.10718,0.0444 0.18563,0.11321 0.21269,0.18701 0.0289,0.079 0.0759,0.11731 0.14461,0.11805 0.27685,0.003 0.60924,0.36638 0.84845,0.92783 0.10777,0.25292 0.32155,0.53483 0.59531,0.78508 0.33738,0.30837 0.43996,0.4326 0.58158,0.70428 0.07,0.13434 0.18447,0.31971 0.25429,0.41199 0.0698,0.0923 0.16304,0.25593 0.20723,0.36363 0.0442,0.10771 0.25518,0.422 0.46875,0.69836 l 0.3883,0.50247 v 0.28194 c -5.3e-4,0.3702 0.22306,0.95159 0.40059,1.04302 0.0845,0.0435 0.1069,0.0796 0.0853,0.13748 -0.0161,0.0432 -0.026,0.16424 -0.0222,0.26897 0.004,0.11407 -0.015,0.21205 -0.0479,0.24429 -0.0302,0.0297 -0.0669,0.14724 -0.0816,0.26144 -0.0223,0.17365 -0.0161,0.20761 0.0381,0.20761 0.0356,0 0.0533,0.023 0.0394,0.051 -0.014,0.0281 -0.004,0.083 0.0222,0.12211 0.0372,0.0558 0.0367,0.0874 -0.002,0.14609 -0.0935,0.14007 -0.0704,0.42342 0.0489,0.59845 0.12533,0.18391 0.13299,0.2391 0.0493,0.35409 -0.0467,0.0642 -0.0511,0.11183 -0.0197,0.21458 0.0222,0.0727 0.0405,0.18045 0.0405,0.23941 0,0.0589 0.0354,0.13466 0.0786,0.16822 0.0432,0.0336 0.0786,0.0893 0.0786,0.12395 0,0.0759 0.25755,0.38944 0.38892,0.47336 0.0783,0.0499 0.0998,0.0476 0.12762,-0.0142 0.0382,-0.0847 0.19083,-0.0563 0.19083,0.0356 0,0.0322 0.0982,0.10922 0.21829,0.17108 0.16897,0.0871 0.27112,0.18873 0.45194,0.44989 0.12849,0.1856 0.23364,0.35718 0.23364,0.38119 0,0.024 0.0928,0.0817 0.20632,0.12834 0.11347,0.0467 0.33895,0.15495 0.50106,0.24074 0.1621,0.0858 0.392,0.18447 0.51088,0.21926 0.11888,0.0348 0.25103,0.0932 0.29367,0.12967 0.0426,0.0364 0.13628,0.0664 0.20815,0.0664 0.10444,0 0.17022,0.0491 0.32752,0.24465 0.10825,0.13457 0.27094,0.29095 0.36159,0.34751 0.0907,0.0565 0.20219,0.14521 0.24777,0.19704 0.0456,0.0518 0.36389,0.21804 0.70738,0.36945 0.34347,0.15139 0.67752,0.3237 0.74237,0.38289 0.0803,0.0734 0.22432,0.12596 0.45194,0.16498 0.33621,0.0577 0.76204,0.21094 0.85651,0.30838 0.028,0.029 0.0424,0.08 0.032,0.11385 -0.013,0.0421 0.0451,0.0718 0.18488,0.0945 0.20997,0.0341 0.26212,0.0597 0.59679,0.29187 0.1442,0.10007 0.29684,0.15221 0.57366,0.19589 0.2529,0.04 0.45362,0.10447 0.60914,0.19599 0.25689,0.15119 0.5402,0.21323 0.58279,0.12759 0.0149,-0.0299 0.0946,-0.0544 0.17708,-0.0544 0.0855,0 0.22379,-0.0512 0.32184,-0.11889 0.0946,-0.0653 0.27207,-0.16506 0.39444,-0.22165 0.12236,-0.0565 0.29036,-0.16779 0.37333,-0.24704 0.083,-0.0793 0.16859,-0.16082 0.19021,-0.1813 0.0216,-0.0206 0.16093,-0.0426 0.30954,-0.0493 0.26713,-0.0119 0.58483,0.0635 0.92837,0.21994 0.2701,0.12301 0.67551,0.45184 1.05546,0.83555 h 1.19108 c -0.003,-0.004 -0.008,-0.008 -0.0111,-0.0111 l -0.0832,-0.0725 0.0999,-0.21125 c 0.0549,-0.11621 0.16528,-0.35965 0.24524,-0.54101 l 0.14537,-0.32977 h 0.7027 0.70277 l -0.009,-0.37345 c -0.009,-0.37326 -0.009,-0.3735 -0.13993,-0.4415 -0.0721,-0.0375 -0.16593,-0.14166 -0.20869,-0.23176 -0.0537,-0.11343 -0.15476,-0.20959 -0.32791,-0.3124 -0.3074,-0.18255 -0.35189,-0.25305 -0.15972,-0.25305 h 0.14223 l -0.009,-0.42746 -0.009,-0.42737 0.52654,-0.0813 c 0.2896,-0.0448 0.69794,-0.10755 0.90748,-0.1396 0.34211,-0.0523 0.38219,-0.0689 0.39298,-0.16296 0.0104,-0.0905 0.0339,-0.1028 0.17254,-0.0902 0.14903,0.0135 0.16804,5.3e-4 0.26527,-0.18215 0.0576,-0.10822 0.10477,-0.22917 0.10477,-0.26879 0,-0.15125 0.0954,-0.32411 0.19342,-0.35057 0.0557,-0.015 0.12214,-0.0351 0.14753,-0.0448 0.0254,-0.0105 0.0697,-0.12145 0.0986,-0.24855 0.0712,-0.31311 0.14991,-0.33923 0.14991,-0.0497 0,0.22367 0.13053,0.54247 0.25874,0.63184 0.0679,0.0473 0.0758,0.0216 0.13456,-0.4372 0.0245,-0.19196 0.0769,-0.50523 0.1165,-0.69616 l 0.0718,-0.34712 h -0.0944 c -0.11465,0 -0.11661,-0.0228 -0.0157,-0.18216 0.11774,-0.18605 0.10474,-0.31719 -0.0294,-0.29769 -0.0894,0.013 -0.10583,-0.001 -0.0949,-0.0819 0.008,-0.0537 0.0487,-0.14528 0.0921,-0.20342 0.07,-0.0939 0.076,-0.1458 0.0519,-0.46411 -0.0264,-0.35147 -0.0245,-0.36216 0.0985,-0.55381 0.21891,-0.34088 0.30952,-0.61864 0.33711,-1.03354 0.0321,-0.48187 -7.9e-4,-0.52803 -0.43805,-0.61401 -0.57302,-0.11271 -1.12859,-0.0518 -1.33062,0.14571 -0.0659,0.0644 -0.30881,0.16243 -0.64391,0.25992 -0.296,0.0861 -0.60893,0.2004 -0.69539,0.25389 -0.27444,0.16982 -0.4415,0.36292 -0.4636,0.53596 -0.0112,0.0874 -0.0372,0.23803 -0.0578,0.33462 -0.0221,0.10353 -0.0247,0.36428 -0.007,0.6351 0.0304,0.44958 0.0289,0.46223 -0.0687,0.58976 -0.0792,0.10343 -0.10393,0.1959 -0.12019,0.44778 -0.0195,0.30152 -0.03,0.32901 -0.20979,0.54914 -0.10409,0.12745 -0.27305,0.28868 -0.3754,0.35828 -0.22644,0.15398 -0.25221,0.22629 -0.0947,0.26545 0.16126,0.0401 0.1516,0.13739 -0.0378,0.37994 -0.0983,0.12598 -0.1572,0.17307 -0.1572,0.12577 0,-0.0417 -0.0431,-0.11782 -0.0959,-0.16937 -0.0892,-0.0872 -0.11441,-0.0892 -0.36351,-0.029 -0.14722,0.0356 -0.33307,0.0769 -0.41302,0.0919 -0.12655,0.0237 -0.1635,0.0644 -0.2853,0.31365 l -0.14001,0.28635 -0.32375,0.0187 c -0.20418,0.0119 -0.3819,0.052 -0.48103,0.10915 -0.0865,0.0497 -0.22888,0.13146 -0.31653,0.18148 -0.0877,0.05 -0.26474,0.10479 -0.39353,0.12147 -0.23397,0.0304 -0.23436,0.0302 -0.45961,-0.1979 -0.12398,-0.12554 -0.22543,-0.24901 -0.22543,-0.27441 0,-0.0254 -0.0595,-0.0462 -0.13209,-0.0462 -0.0767,0 -0.19383,-0.0521 -0.27939,-0.12433 -0.12124,-0.10228 -0.17618,-0.11901 -0.31001,-0.0945 -0.12142,0.0222 -0.21256,0.002 -0.35922,-0.078 -0.21863,-0.12005 -0.25395,-0.16543 -0.25483,-0.32758 -2.6e-4,-0.0613 -0.0271,-0.12412 -0.0596,-0.13959 -0.0401,-0.0191 -0.0589,-0.0972 -0.0589,-0.24379 0,-0.1796 -0.0156,-0.22449 -0.0933,-0.26849 -0.0875,-0.0495 -0.26035,-0.39904 -0.26035,-0.52643 0,-0.18106 -0.37306,-0.82553 -0.72165,-1.24669 -0.10023,-0.1211 -0.18222,-0.25314 -0.18222,-0.29351 0,-0.0404 -0.0617,-0.21297 -0.13708,-0.38349 -0.082,-0.18539 -0.12297,-0.32849 -0.10192,-0.3559 0.0193,-0.0252 0.0543,-0.13335 0.0775,-0.24036 0.0414,-0.19047 0.0387,-0.19917 -0.12803,-0.41525 -0.21523,-0.27886 -0.38471,-0.56324 -0.35654,-0.59826 0.0119,-0.0148 -0.007,-0.16308 -0.0414,-0.32956 -0.0511,-0.24516 -0.0543,-0.33566 -0.017,-0.47623 0.0304,-0.11451 0.0477,-0.65159 0.051,-1.57848 0.004,-1.24604 0.0125,-1.4151 0.0716,-1.49622 0.0366,-0.0504 0.15597,-0.34292 0.26527,-0.65028 0.17613,-0.49531 0.19871,-0.59717 0.19871,-0.89605 0,-0.30286 -0.007,-0.33332 -0.0688,-0.29961 -0.0378,0.0207 -0.10855,0.0363 -0.15719,0.0347 -0.0613,-0.002 -0.0884,0.0257 -0.0884,0.0899 0,0.12068 -0.0871,0.11815 -0.17684,-0.005 -0.0586,-0.0804 -0.12105,-0.0977 -0.35369,-0.0977 -0.23478,0 -0.29483,-0.0169 -0.3553,-0.10001 -0.0715,-0.0982 -0.43115,-0.34672 -0.45685,-0.31573 -0.007,0.009 -0.13691,-0.0337 -0.28821,-0.0942 -0.25289,-0.10111 -0.28306,-0.12805 -0.3738,-0.33299 -0.0543,-0.12261 -0.12835,-0.2636 -0.16456,-0.31335 -0.0583,-0.08 -0.11536,-0.30042 -0.26573,-1.02621 -0.0371,-0.17916 -0.0634,-0.21395 -0.2163,-0.28653 -0.14201,-0.0674 -0.1787,-0.1108 -0.19971,-0.23577 -0.0141,-0.0842 -0.12666,-0.34003 -0.24999,-0.5684 -0.12335,-0.22839 -0.26572,-0.55442 -0.31639,-0.72449 -0.1436,-0.48202 -0.3575,-0.85521 -0.60122,-1.04903 -0.13185,-0.10479 -0.23148,-0.22667 -0.2632,-0.32184 -0.0335,-0.10059 -0.0864,-0.16248 -0.15412,-0.18034 -0.0567,-0.015 -0.17802,-0.0603 -0.26965,-0.10091 -0.14929,-0.0661 -0.17932,-0.0659 -0.2889,0.002 -0.0673,0.0418 -0.18685,0.0904 -0.26573,0.1082 -0.0789,0.0178 -0.24185,0.0937 -0.3622,0.1685 -0.20963,0.13035 -0.22192,0.14877 -0.29206,0.43672 -0.0466,0.19143 -0.12414,0.369 -0.21345,0.48892 l -0.14024,0.18825 -0.46037,-0.33253 c -0.25322,-0.18287 -0.55139,-0.43413 -0.66255,-0.55837 -0.11116,-0.12424 -0.21569,-0.22585 -0.23234,-0.22585 -0.0459,0 -0.10916,-0.2399 -0.13516,-0.51296 -0.0429,-0.45044 -0.13724,-0.717003 -0.35001,-0.989283 -0.11552,-0.147828 -0.23512,-0.256479 -0.28239,-0.256479 -0.0599,0 -0.1416,-0.11485 -0.30394,-0.427461 -0.19028,-0.366418 -0.25878,-0.455218 -0.47934,-0.621358 -0.19464,-0.146611 -0.25205,-0.214341 -0.23572,-0.27832 0.0306,-0.11969 -0.12213,-0.29853 -0.22143,-0.259361 -0.0488,0.01921 -0.14216,-0.01619 -0.25061,-0.0951 -0.1669,-0.121589 -0.19508,-0.125862 -0.82404,-0.125862 h -0.65146 v 0.323469 0.323543 l -0.81545,-0.0339 c -1.48343,-0.0617 -2.26887,-0.206809 -2.59386,-0.47937 -0.21994,-0.184441 -1.3014,-0.916879 -2.19075,-1.483719 l -0.78597,-0.500949 0.0134,-0.222592 0.0134,-0.222609 h -1.20715 z"
         style="opacity:1;fill:#b3b3b3;stroke:none;stroke-width:0.34295025;stroke-miterlimit:4;stroke-dasharray:none;stroke-opacity:1" />
      <path
         id="path891-9-2"
         d="m -892.70417,62.314546 -54.50417,22.225007 v 0.26458 l 47.88959,8.73124 v -0.26458 l -47.44104,-8.64959 54.05562,-22.042074 z"
         style="fill:#800000;stroke:none;stroke-width:0.26458332px;stroke-linecap:butt;stroke-linejoin:miter;stroke-opacity:1"
         inkscape:connector-curvature="0" />
      <text
         transform="scale(0.98884298,1.0112829)"
         id="text1019-5-5-7"
         y="116.50682"
         x="-930.9137"
         style="font-style:normal;font-variant:normal;font-weight:bold;font-stretch:normal;font-size:8.05130386px;line-height:7.5481658px;font-family:Arial;-inkscape-font-specification:'Arial, Bold';font-variant-ligatures:normal;font-variant-caps:normal;font-variant-numeric:normal;font-feature-settings:normal;text-align:center;letter-spacing:0px;word-spacing:0px;writing-mode:lr-tb;text-anchor:middle;fill:#800000;fill-opacity:1;stroke:none;stroke-width:0.30192658"
         xml:space="preserve"><tspan
           style="font-style:normal;font-variant:normal;font-weight:bold;font-stretch:normal;font-size:8.05130386px;font-family:Arial;-inkscape-font-specification:'Arial, Bold';font-variant-ligatures:normal;font-variant-caps:normal;font-variant-numeric:normal;font-feature-settings:normal;text-align:center;writing-mode:lr-tb;text-anchor:middle;fill:#800000;stroke-width:0.30192658"
           y="116.50682"
           x="-930.9137"
           id="tspan1017-8-4-2"
           sodipodi:role="line">Trabajar para el Desarrollo Social</tspan></text>
    </g>
  </g>
</svg>
