<?xml version="1.0" encoding="UTF-8" standalone="no"?>
<!-- Created with Inkscape (http://www.inkscape.org/) -->

<svg
   version="1.1"
   id="svg657"
   width="34"
   height="33"
   viewBox="0 0 34 33"
   sodipodi:docname="logo-light-icon.svg"
   inkscape:version="1.2.1 (9c6d41e410, 2022-07-14)"
   xmlns:inkscape="http://www.inkscape.org/namespaces/inkscape"
   xmlns:sodipodi="http://sodipodi.sourceforge.net/DTD/sodipodi-0.dtd"
   xmlns="http://www.w3.org/2000/svg"
   xmlns:svg="http://www.w3.org/2000/svg">
  <defs
     id="defs661" />
  <sodipodi:namedview
     id="namedview659"
     pagecolor="#ffffff"
     bordercolor="#000000"
     borderopacity="0.25"
     inkscape:showpageshadow="2"
     inkscape:pageopacity="0.0"
     inkscape:pagecheckerboard="0"
     inkscape:deskcolor="#d1d1d1"
     showgrid="false"
     inkscape:zoom="7.1515152"
     inkscape:cx="21.743644"
     inkscape:cy="21.603813"
     inkscape:window-width="1366"
     inkscape:window-height="684"
     inkscape:window-x="0"
     inkscape:window-y="0"
     inkscape:window-maximized="1"
     inkscape:current-layer="g663" />
  <g
     inkscape:groupmode="layer"
     inkscape:label="Image"
     id="g663">
    <path
       id="path1611"
       style="fill:#dac6a1;fill-opacity:1;stroke-width:0.00535615"
       d="M 16.926156,4.233342e-4 C 15.57751,0.00852046 14.204129,0.12847241 13.236878,0.35138118 6.5027526,1.9031599 1.4830451,7.0001755 0.21564215,13.574672 -0.09021607,15.161238 -0.06775813,17.889536 0.26420346,19.503831 1.779186,26.865404 7.9729466,32.24582 15.727195,32.93811 c 0.547904,0.04857 1.169872,0.07433 1.382927,0.05593 0.213059,-0.0184 0.784898,-0.06255 1.271934,-0.09685 2.766051,-0.196489 5.704151,-1.210897 8.253149,-2.852634 1.396138,-0.899213 3.483572,-2.925928 4.410706,-4.280025 1.307258,-1.909265 2.196228,-3.946135 2.688158,-6.161677 0.355028,-1.599224 0.354876,-4.691801 -0.0023,-6.297316 C 32.196189,6.4011194 26.845978,1.35664 19.822695,0.18986249 19.009337,0.0547486 17.974828,-0.00581723 16.925878,4.3837314e-4 Z M 8.5864385,7.3698986 10.271254,7.4452527 c 2.798019,0.126357 4.518262,0.5146985 5.995627,1.3520442 l 0.752468,0.4262426 0.74139,-0.4262426 c 1.468059,-0.845896 3.141237,-1.2254292 5.951237,-1.3541925 l 1.589364,-0.072854 v 7.3027356 7.302735 l -1.13431,0.07286 c -1.536896,0.100011 -3.269197,0.351105 -4.040004,0.585639 l -0.63706,0.193767 0.774708,0.0861 c 0.426124,0.0471 1.796355,0.05372 3.04332,0.01473 2.071376,-0.06476 2.286548,-0.08853 2.490587,-0.286345 0.217842,-0.211428 0.223533,-0.363984 0.255248,-6.383431 l 0.03339,-6.16599 0.315192,-0.2195977 c 0.420204,-0.2902447 0.695028,-0.274643 1.105444,0.060345 l 0.339624,0.2777347 v 6.329604 c 0,5.736778 -0.01821,6.353887 -0.186504,6.618101 -0.287725,0.451411 -0.940269,1.097521 -1.307452,1.291758 -0.298119,0.157706 -1.181505,0.176253 -8.634948,0.193767 -4.565994,0.01109 -8.680547,-0.01326 -9.1455034,-0.05372 C 7.542322,24.500385 6.9744689,24.180038 6.5242186,23.434925 L 6.2179034,22.928984 6.2136932,16.48096 6.2068131,10.032947 6.6218587,9.8176168 7.0369024,9.602289 7.452023,9.8176168 l 0.4150468,0.2153302 0.05539,6.196125 c 0.065258,7.291632 -0.092409,6.593836 1.4939119,6.643938 0.5479059,0.01766 1.8942143,0.01546 2.9900473,-0.0022 l 1.991146,-0.03018 -0.663694,-0.208851 c -0.945599,-0.296028 -2.22579,-0.492885 -3.7915635,-0.581267 l -1.3562859,-0.07535 v -7.302743 z m 1.7380905,1.7201927 0.06222,5.5588617 c 0.04401,3.872919 0.09925,5.578943 0.184229,5.629913 0.06677,0.04048 0.681068,0.13092 1.365171,0.200242 1.340595,0.135851 2.479268,0.404092 3.420684,0.805195 l 0.590471,0.251902 0.08438,-0.921453 c 0.04553,-0.506382 0.07133,-2.923376 0.05539,-5.371555 L 16.058248,10.790943 15.616495,10.5046 C 14.657541,9.8821638 12.974984,9.3960552 10.977062,9.1654782 Z m 13.205479,0.00876 -0.581594,0.07139 c -2.249923,0.2755255 -3.765937,0.7360031 -4.70372,1.4273927 l -0.359655,0.264783 v 5.356484 5.356486 l 0.415045,-0.174411 c 1.269165,-0.536703 3.440428,-1.007579 4.641599,-1.007579 h 0.588271 v -5.647133 z" />
    <path
       id="rect3094"
       style="fill:#ffffff"
       d="m 8.5859375,7.3691406 v 7.3027344 7.302734 l 1.3554687,0.07617 c 1.5657718,0.08838 2.8473708,0.284051 3.7929688,0.580078 l 0.664063,0.208985 -1.992188,0.03125 c -1.095832,0.01766 -2.442329,0.01961 -2.9902344,0.002 C 7.8296963,22.822945 7.9871329,23.52014 7.921875,16.228516 L 7.8671875,10.033203 7.4511719,9.8183594 7.0371094,9.6015625 6.6210938,9.8183594 6.2070312,10.033203 l 0.00586,6.447266 0.00586,6.449219 0.3046875,0.505859 c 0.4502498,0.745112 1.0180796,1.065592 2.0488281,1.15625 0.464956,0.04046 4.5804954,0.06382 9.1464844,0.05273 7.453436,-0.01751 8.336647,-0.03565 8.634766,-0.193359 0.367182,-0.194237 1.018916,-0.839605 1.30664,-1.291016 0.168294,-0.264213 0.1875,-0.882368 0.1875,-6.61914 V 10.210938 L 27.507812,9.9335938 C 27.097397,9.5986061 26.822547,9.5828025 26.402344,9.8730469 l -0.314453,0.2207031 -0.0332,6.166016 c -0.03171,6.019441 -0.03802,6.171384 -0.25586,6.382812 -0.204039,0.197815 -0.41886,0.22235 -2.490234,0.28711 -1.246964,0.03899 -2.616845,0.03147 -3.042969,-0.01563 l -0.775391,-0.08594 0.636719,-0.193359 c 0.770806,-0.234534 2.504121,-0.485927 4.041016,-0.585938 l 1.132812,-0.07227 V 14.673828 7.3710938 l -1.58789,0.072266 C 20.902893,7.5721225 19.227823,7.9509798 17.759766,8.796875 L 17.019531,9.2226562 16.267578,8.796875 C 14.790215,7.9595301 13.069501,7.5716694 10.271484,7.4453125 Z m 1.7382815,1.7207032 0.652343,0.076172 c 1.997921,0.2305768 3.681672,0.7154551 4.640626,1.3378904 l 0.441406,0.28711 0.0293,4.453125 c 0.01594,2.448176 -0.01111,4.864712 -0.05664,5.371093 l -0.08398,0.921875 -0.589844,-0.251953 c -0.941415,-0.401102 -2.081281,-0.67079 -3.421875,-0.80664 -0.684102,-0.06932 -1.298465,-0.158739 -1.365235,-0.199219 -0.08498,-0.05097 -0.139583,-1.757944 -0.183593,-5.630859 z m 13.205078,0.00977 v 5.6464846 5.646484 h -0.587891 c -1.20117,0 -3.371461,0.47111 -4.640625,1.007813 l -0.416015,0.175781 V 16.21875 10.863281 l 0.359375,-0.265625 c 0.937782,-0.6913887 2.455157,-1.1522089 4.705078,-1.4277341 z"
       sodipodi:nodetypes="cccccccccccccccccccscsccccccscccccccccccccccccccccsccccccsccccccc" />
  </g>
</svg>
