<?xml version="1.0" encoding="UTF-8" standalone="no"?>
<!-- Created with Inkscape (http://www.inkscape.org/) -->

<svg
   version="1.1"
   id="svg428"
   width="148"
   height="19"
   viewBox="0 0 148 19"
   sodipodi:docname="logo-light-text.svg"
   inkscape:version="1.2.1 (9c6d41e410, 2022-07-14)"
   xmlns:inkscape="http://www.inkscape.org/namespaces/inkscape"
   xmlns:sodipodi="http://sodipodi.sourceforge.net/DTD/sodipodi-0.dtd"
   xmlns="http://www.w3.org/2000/svg"
   xmlns:svg="http://www.w3.org/2000/svg">
  <defs
     id="defs432" />
  <sodipodi:namedview
     id="namedview430"
     pagecolor="#ffffff"
     bordercolor="#999999"
     borderopacity="1"
     inkscape:showpageshadow="0"
     inkscape:pageopacity="0"
     inkscape:pagecheckerboard="0"
     inkscape:deskcolor="#d1d1d1"
     showgrid="false"
     inkscape:zoom="8.5810811"
     inkscape:cx="69.338583"
     inkscape:cy="8.0992126"
     inkscape:window-width="1366"
     inkscape:window-height="684"
     inkscape:window-x="0"
     inkscape:window-y="0"
     inkscape:window-maximized="1"
     inkscape:current-layer="g434" />
  <g
     inkscape:groupmode="layer"
     inkscape:label="Image"
     id="g434">
    <path
       id="text1321"
       style="font-style:normal;font-variant:normal;font-weight:bold;font-stretch:normal;font-size:4.19869px;font-family:Montserrat;-inkscape-font-specification:'Montserrat, Bold';font-variant-ligatures:normal;font-variant-caps:normal;font-variant-numeric:normal;font-variant-east-asian:normal;fill:#dac6a1;fill-opacity:1;stroke-width:0.0428681"
       d="M 1.2969655 15.500918 C 1.0282496 15.500918 0.79999724 15.541723 0.61245595 15.622897 C 0.42771378 15.704072 0.2905186 15.814573 0.19814751 15.954529 C 0.10577643 16.091686 0.058043211 16.245017 0.058043211 16.415764 C 0.058043211 16.611702 0.10938799 16.768965 0.21015645 16.886528 C 0.31372403 17.004091 0.4356753 17.088739 0.57843062 17.141923 C 0.72118593 17.195106 0.90491047 17.248837 1.1288404 17.302021 C 1.2743948 17.33561 1.3891229 17.36742 1.4730967 17.395411 C 1.5598695 17.423402 1.6300698 17.460276 1.6832531 17.507861 C 1.7392356 17.552647 1.7673157 17.609416 1.7673157 17.679394 C 1.7673157 17.774565 1.721584 17.853136 1.6292129 17.911918 C 1.5368418 17.9679 1.3940336 17.995779 1.200894 17.995779 C 1.0273483 17.995779 0.85405229 17.9679 0.68050661 17.911918 C 0.50696093 17.855935 0.35613193 17.781295 0.23017135 17.688924 L 0 18.201619 C 0.13155882 18.302387 0.30485487 18.38501 0.52038741 18.44939 C 0.73871907 18.51097 0.96456376 18.540874 1.196891 18.540874 C 1.4656069 18.540874 1.6938593 18.500069 1.8814006 18.418895 C 2.0689419 18.33772 2.2093424 18.228232 2.3017135 18.091075 C 2.3968837 17.951119 2.4438193 17.797788 2.4438193 17.62984 C 2.4438193 17.433902 2.3912707 17.277652 2.2877031 17.162888 C 2.1869346 17.048124 2.0661872 16.964489 1.9234319 16.911305 C 1.7806766 16.858122 1.5969521 16.806296 1.3730222 16.753113 C 1.1574896 16.705528 0.99702977 16.657754 0.89066306 16.610168 C 0.78709548 16.559784 0.73454684 16.484131 0.73454684 16.383363 C 0.73454684 16.282594 0.77907471 16.200985 0.86864667 16.139404 C 0.96101776 16.077823 1.1026221 16.046014 1.2929626 16.046014 C 1.5644776 16.046014 1.836054 16.124585 2.107569 16.278537 L 2.3177254 15.76203 C 2.1833675 15.678056 2.0265192 15.612411 1.8473753 15.567625 C 1.6682314 15.522839 1.4845068 15.500918 1.2969655 15.500918 z M 5.3539858 15.500918 C 5.0852699 15.500918 4.8570175 15.541723 4.6694762 15.622897 C 4.4847341 15.704072 4.3455374 15.814573 4.2531663 15.954529 C 4.1607952 16.091686 4.1150635 16.245017 4.1150635 16.415764 C 4.1150635 16.611702 4.1644068 16.768965 4.2651752 16.886528 C 4.3687428 17.004091 4.4926956 17.088739 4.6354509 17.141923 C 4.7782062 17.195106 4.9619308 17.248837 5.1858607 17.302021 C 5.3314151 17.33561 5.4461432 17.36742 5.5301169 17.395411 C 5.6168898 17.423402 5.68709 17.460276 5.7402734 17.507861 C 5.7962559 17.552647 5.824336 17.609416 5.824336 17.679394 C 5.824336 17.774565 5.7766028 17.853136 5.6842317 17.911918 C 5.5918606 17.9679 5.4490524 17.995779 5.2559128 17.995779 C 5.0823671 17.995779 4.9090711 17.9679 4.7355254 17.911918 C 4.5619797 17.855935 4.4131522 17.781295 4.2871916 17.688924 L 4.0550188 18.201619 C 4.1865776 18.302387 4.3618752 18.38501 4.5774077 18.44939 C 4.7957393 18.51097 5.0195825 18.540874 5.2519098 18.540874 C 5.5206257 18.540874 5.7488781 18.500069 5.9364194 18.418895 C 6.1239607 18.33772 6.2643612 18.228232 6.3567323 18.091075 C 6.4519025 17.951119 6.4988381 17.797788 6.4988381 17.62984 C 6.4988381 17.433902 6.448291 17.277652 6.3447234 17.162888 C 6.2439549 17.048124 6.121206 16.964489 5.9784507 16.911305 C 5.8356954 16.858122 5.6519709 16.806296 5.4280409 16.753113 C 5.2125084 16.705528 5.0520486 16.657754 4.9456819 16.610168 C 4.8421143 16.559784 4.7915671 16.484131 4.7915671 16.383363 C 4.7915671 16.282594 4.836095 16.200985 4.925667 16.139404 C 5.018038 16.077823 5.1596424 16.046014 5.3499828 16.046014 C 5.6214978 16.046014 5.8930743 16.124585 6.1645893 16.278537 L 6.3727442 15.76203 C 6.2383863 15.678056 6.081538 15.612411 5.9023941 15.567625 C 5.7232502 15.522839 5.5415271 15.500918 5.3539858 15.500918 z M 29.634061 15.500918 C 29.331756 15.500918 29.058976 15.567576 28.815452 15.699135 C 28.574727 15.827894 28.384983 16.008091 28.245027 16.240418 C 28.10787 16.469946 28.038874 16.73074 28.038874 17.021849 C 28.038874 17.312958 28.10787 17.572858 28.245027 17.805186 C 28.384983 18.034714 28.574727 18.216817 28.815452 18.348375 C 29.058976 18.477135 29.330552 18.540874 29.630058 18.540874 C 29.884779 18.540874 30.115439 18.497031 30.322574 18.407459 C 30.529709 18.317887 30.703005 18.18749 30.842961 18.016744 L 30.406636 17.612687 C 30.207899 17.845014 29.961995 17.961472 29.668087 17.961472 C 29.486144 17.961472 29.32448 17.92168 29.181725 17.843304 C 29.038969 17.76213 28.926649 17.650616 28.845474 17.507861 C 28.767099 17.365106 28.727386 17.203792 28.727386 17.021849 C 28.727386 16.839906 28.767099 16.676687 28.845474 16.533931 C 28.926649 16.391176 29.038969 16.280675 29.181725 16.2023 C 29.32448 16.121125 29.486144 16.08032 29.668087 16.08032 C 29.961995 16.08032 30.207899 16.195765 30.406636 16.425293 L 30.842961 16.021236 C 30.703005 15.853289 30.529709 15.725811 30.322574 15.636239 C 30.118238 15.546667 29.888782 15.500918 29.634061 15.500918 z M 32.662316 15.500918 C 32.357211 15.500918 32.080022 15.567576 31.833699 15.699135 C 31.590175 15.830693 31.399227 16.011903 31.259271 16.24423 C 31.122114 16.473758 31.053118 16.733539 31.053118 17.021849 C 31.053118 17.310159 31.122114 17.569047 31.259271 17.801374 C 31.399227 18.030902 31.590175 18.211099 31.833699 18.342658 C 32.080022 18.474216 32.357211 18.540874 32.662316 18.540874 C 32.96742 18.540874 33.241404 18.474216 33.484928 18.342658 C 33.728452 18.211099 33.9194 18.030902 34.059356 17.801374 C 34.199312 17.569047 34.269512 17.310159 34.269512 17.021849 C 34.269512 16.733539 34.199312 16.473758 34.059356 16.24423 C 33.9194 16.011903 33.728452 15.830693 33.484928 15.699135 C 33.241404 15.567576 32.96742 15.500918 32.662316 15.500918 z M 45.277707 15.500918 C 44.972603 15.500918 44.697415 15.567576 44.451092 15.699135 C 44.207568 15.830693 44.016621 16.011903 43.876664 16.24423 C 43.739507 16.473758 43.670511 16.733539 43.670511 17.021849 C 43.670511 17.310159 43.739507 17.569047 43.876664 17.801374 C 44.016621 18.030902 44.207568 18.211099 44.451092 18.342658 C 44.697415 18.474216 44.972603 18.540874 45.277707 18.540874 C 45.582812 18.540874 45.858797 18.474216 46.102321 18.342658 C 46.345845 18.211099 46.536793 18.030902 46.676749 17.801374 C 46.816705 17.569047 46.886905 17.310159 46.886905 17.021849 C 46.886905 16.733539 46.816705 16.473758 46.676749 16.24423 C 46.536793 16.011903 46.345845 15.830693 46.102321 15.699135 C 45.858797 15.567576 45.582812 15.500918 45.277707 15.500918 z M 64.26184 15.500918 C 63.956736 15.500918 63.679546 15.567576 63.433223 15.699135 C 63.1897 15.830693 62.998752 16.011903 62.858796 16.24423 C 62.721639 16.473758 62.652642 16.733539 62.652642 17.021849 C 62.652642 17.310159 62.721639 17.569047 62.858796 17.801374 C 62.998752 18.030902 63.1897 18.211099 63.433223 18.342658 C 63.679546 18.474216 63.956736 18.540874 64.26184 18.540874 C 64.566945 18.540874 64.840929 18.474216 65.084453 18.342658 C 65.327976 18.211099 65.518924 18.030902 65.65888 17.801374 C 65.798836 17.569047 65.869037 17.310159 65.869037 17.021849 C 65.869037 16.733539 65.798836 16.473758 65.65888 16.24423 C 65.518924 16.011903 65.327976 15.830693 65.084453 15.699135 C 64.840929 15.567576 64.566945 15.500918 64.26184 15.500918 z M 73.15446 15.500918 C 72.852155 15.500918 72.579375 15.567576 72.335851 15.699135 C 72.095126 15.827894 71.903381 16.008091 71.763425 16.240418 C 71.626268 16.469946 71.557271 16.73074 71.557271 17.021849 C 71.557271 17.312958 71.626268 17.572858 71.763425 17.805186 C 71.903381 18.034714 72.095126 18.216817 72.335851 18.348375 C 72.579375 18.477135 72.84895 18.540874 73.148456 18.540874 C 73.403176 18.540874 73.635838 18.497031 73.842973 18.407459 C 74.050108 18.317887 74.223404 18.18749 74.36336 18.016744 L 73.927036 17.612687 C 73.728298 17.845014 73.480392 17.961472 73.186484 17.961472 C 73.004541 17.961472 72.842878 17.92168 72.700122 17.843304 C 72.557367 17.76213 72.445046 17.650616 72.363872 17.507861 C 72.285496 17.365106 72.245784 17.203792 72.245784 17.021849 C 72.245784 16.839906 72.285496 16.676687 72.363872 16.533931 C 72.445046 16.391176 72.557367 16.280675 72.700122 16.2023 C 72.842878 16.121125 73.004541 16.08032 73.186484 16.08032 C 73.480392 16.08032 73.728298 16.195765 73.927036 16.425293 L 74.36336 16.021236 C 74.223404 15.853289 74.050108 15.725811 73.842973 15.636239 C 73.638637 15.546667 73.409181 15.500918 73.15446 15.500918 z M 83.864434 15.500918 C 83.559329 15.500918 83.284141 15.567576 83.037818 15.699135 C 82.794294 15.830693 82.601345 16.011903 82.461389 16.24423 C 82.324232 16.473758 82.257237 16.733539 82.257237 17.021849 C 82.257237 17.310159 82.324232 17.569047 82.461389 17.801374 C 82.601345 18.030902 82.794294 18.211099 83.037818 18.342658 C 83.284141 18.474216 83.559329 18.540874 83.864434 18.540874 C 84.169538 18.540874 84.443522 18.474216 84.687046 18.342658 C 84.93057 18.211099 85.123519 18.030902 85.263475 17.801374 C 85.403431 17.569047 85.47163 17.310159 85.47163 17.021849 C 85.47163 16.733539 85.403431 16.473758 85.263475 16.24423 C 85.123519 16.011903 84.93057 15.830693 84.687046 15.699135 C 84.443522 15.567576 84.169538 15.500918 83.864434 15.500918 z M 108.07045 15.500918 C 107.80174 15.500918 107.57349 15.541723 107.38594 15.622897 C 107.2012 15.704072 107.06201 15.814573 106.96963 15.954529 C 106.87726 16.091686 106.83153 16.245017 106.83153 16.415764 C 106.83153 16.611702 106.88087 16.768965 106.98164 16.886528 C 107.08521 17.004091 107.20916 17.088739 107.35192 17.141923 C 107.49467 17.195106 107.6784 17.248837 107.90233 17.302021 C 108.04788 17.33561 108.16261 17.36742 108.24659 17.395411 C 108.33336 17.423402 108.40356 17.460276 108.45674 17.507861 C 108.51272 17.552647 108.5408 17.609416 108.5408 17.679394 C 108.5408 17.774565 108.49307 17.853136 108.4007 17.911918 C 108.30833 17.9679 108.16552 17.995779 107.97238 17.995779 C 107.79884 17.995779 107.62554 17.9679 107.45199 17.911918 C 107.27845 17.855935 107.12962 17.781295 107.00366 17.688924 L 106.77149 18.201619 C 106.90305 18.302387 107.07834 18.38501 107.29388 18.44939 C 107.51221 18.51097 107.73605 18.540874 107.96838 18.540874 C 108.23709 18.540874 108.46535 18.500069 108.65289 18.418895 C 108.84043 18.33772 108.98083 18.228232 109.0732 18.091075 C 109.16837 17.951119 109.21531 17.797788 109.21531 17.62984 C 109.21531 17.433902 109.16476 17.277652 109.06119 17.162888 C 108.96042 17.048124 108.83767 16.964489 108.69492 16.911305 C 108.55216 16.858122 108.36844 16.806296 108.14451 16.753113 C 107.92898 16.705528 107.76852 16.657754 107.66215 16.610168 C 107.55858 16.559784 107.50804 16.484131 107.50804 16.383363 C 107.50804 16.282594 107.55256 16.200985 107.64214 16.139404 C 107.73451 16.077823 107.87611 16.046014 108.06645 16.046014 C 108.33797 16.046014 108.60954 16.124585 108.88106 16.278537 L 109.08921 15.76203 C 108.95485 15.678056 108.80001 15.612411 108.62086 15.567625 C 108.44172 15.522839 108.258 15.500918 108.07045 15.500918 z M 2.9101665 15.550472 L 2.9101665 18.49132 L 3.5906731 18.49132 L 3.5906731 15.550472 L 2.9101665 15.550472 z M 6.5929081 15.550472 L 6.5929081 16.105097 L 7.531607 16.105097 L 7.531607 18.49132 L 8.2121136 18.49132 L 8.2121136 16.105097 L 9.1528139 16.105097 L 9.1528139 15.550472 L 6.5929081 15.550472 z M 9.5190866 15.550472 L 9.5190866 18.49132 L 11.794781 18.49132 L 11.794781 17.944319 L 10.193589 17.944319 L 10.193589 17.263902 L 11.558605 17.263902 L 11.558605 16.73596 L 10.193589 16.73596 L 10.193589 16.097474 L 11.738739 16.097474 L 11.738739 15.550472 L 9.5190866 15.550472 z M 12.335183 15.550472 L 12.335183 18.49132 L 12.973658 18.49132 L 12.973658 16.764549 L 13.834299 18.180654 L 14.140527 18.180654 L 15.005171 16.72643 L 15.011175 18.49132 L 15.647649 18.49132 L 15.639643 15.550472 L 15.081227 15.550472 L 13.998421 17.378258 L 12.897602 15.550472 L 12.335183 15.550472 z M 17.268856 15.550472 L 15.959881 18.49132 L 16.6564 18.49132 L 16.916594 17.860458 L 18.28161 17.860458 L 18.541804 18.49132 L 19.254334 18.49132 L 17.941357 15.550472 L 17.268856 15.550472 z M 20.749447 15.550472 L 20.749447 18.49132 L 22.084441 18.49132 C 22.403541 18.49132 22.685546 18.430619 22.92907 18.310257 C 23.175393 18.187095 23.365136 18.014881 23.499494 17.79375 C 23.636651 17.572619 23.705648 17.315757 23.705648 17.021849 C 23.705648 16.727941 23.636651 16.469173 23.499494 16.248042 C 23.365136 16.026911 23.175393 15.855709 22.92907 15.735347 C 22.685546 15.612186 22.403541 15.550472 22.084441 15.550472 L 20.749447 15.550472 z M 24.218029 15.550472 L 24.218029 18.49132 L 26.493723 18.49132 L 26.493723 17.944319 L 24.894533 17.944319 L 24.894533 17.263902 L 26.259549 17.263902 L 26.259549 16.73596 L 24.894533 16.73596 L 24.894533 16.097474 L 26.439683 16.097474 L 26.439683 15.550472 L 24.218029 15.550472 z M 34.781894 15.550472 L 34.781894 18.49132 L 35.454394 18.49132 L 35.454394 16.705465 L 36.919485 18.49132 L 37.477901 18.49132 L 37.477901 15.550472 L 36.8054 15.550472 L 36.8054 17.336327 L 35.344312 15.550472 L 34.781894 15.550472 z M 37.842172 15.550472 L 37.842172 16.105097 L 38.782872 16.105097 L 38.782872 18.49132 L 39.463379 18.49132 L 39.463379 16.105097 L 40.404079 16.105097 L 40.404079 15.550472 L 37.842172 15.550472 z M 40.76835 15.550472 L 40.76835 18.49132 L 41.448857 18.49132 L 41.448857 17.671771 L 42.041298 17.671771 L 42.075323 17.671771 L 42.641745 18.49132 L 43.372289 18.49132 L 42.713799 17.545979 C 42.906938 17.462006 43.054562 17.340604 43.158129 17.183853 C 43.264496 17.024303 43.318249 16.836124 43.318249 16.617792 C 43.318249 16.39946 43.2657 16.211281 43.162132 16.051731 C 43.058565 15.892181 42.910941 15.768754 42.717802 15.681981 C 42.527461 15.595208 42.301617 15.550472 42.041298 15.550472 L 40.76835 15.550472 z M 47.399287 15.550472 L 47.399287 18.49132 L 49.55289 18.49132 L 49.55289 17.936695 L 48.079793 17.936695 L 48.079793 15.550472 L 47.399287 15.550472 z M 51.12406 15.550472 L 51.12406 18.49132 L 52.643191 18.49132 C 53.026671 18.49132 53.317103 18.422637 53.51584 18.28548 C 53.717377 18.145524 53.818065 17.946443 53.818065 17.688924 C 53.818065 17.506981 53.77113 17.354663 53.67596 17.231501 C 53.580789 17.105541 53.449613 17.015949 53.281666 16.962765 C 53.404827 16.898385 53.498699 16.809806 53.565878 16.697841 C 53.635856 16.585876 53.671957 16.457505 53.671957 16.314749 C 53.671957 16.079623 53.57488 15.893469 53.38174 15.756312 C 53.1914 15.619155 52.917416 15.550472 52.559128 15.550472 L 51.12406 15.550472 z M 54.33445 15.550472 L 54.33445 18.49132 L 55.014956 18.49132 L 55.014956 15.550472 L 54.33445 15.550472 z M 55.711475 15.550472 L 55.711475 18.49132 L 57.232607 18.49132 C 57.616087 18.49132 57.906519 18.422637 58.105257 18.28548 C 58.306794 18.145524 58.407482 17.946443 58.407482 17.688924 C 58.407482 17.506981 58.360546 17.354663 58.265376 17.231501 C 58.170206 17.105541 58.03903 17.015949 57.871083 16.962765 C 57.994244 16.898385 58.088115 16.809806 58.155294 16.697841 C 58.225272 16.585876 58.261373 16.457505 58.261373 16.314749 C 58.261373 16.079623 58.164297 15.893469 57.971157 15.756312 C 57.780817 15.619155 57.506833 15.550472 57.148545 15.550472 L 55.711475 15.550472 z M 58.923866 15.550472 L 58.923866 18.49132 L 61.07747 18.49132 L 61.07747 17.936695 L 59.604373 17.936695 L 59.604373 15.550472 L 58.923866 15.550472 z M 61.459754 15.550472 L 61.459754 18.49132 L 62.140261 18.49132 L 62.140261 15.550472 L 61.459754 15.550472 z M 66.00714 15.550472 L 66.00714 16.105097 L 66.94784 16.105097 L 66.94784 18.49132 L 67.628346 18.49132 L 67.628346 16.105097 L 68.569047 16.105097 L 68.569047 15.550472 L 66.00714 15.550472 z M 68.933318 15.550472 L 68.933318 18.49132 L 71.209012 18.49132 L 71.209012 17.944319 L 69.609822 17.944319 L 69.609822 17.263902 L 70.974838 17.263902 L 70.974838 16.73596 L 69.609822 16.73596 L 69.609822 16.097474 L 71.154972 16.097474 L 71.154972 15.550472 L 68.933318 15.550472 z M 75.686345 15.550472 L 74.375369 18.49132 L 75.071888 18.49132 L 75.332082 17.860458 L 76.697098 17.860458 L 76.957291 18.49132 L 77.671823 18.49132 L 76.356844 15.550472 L 75.686345 15.550472 z M 77.978051 15.550472 L 77.978051 18.49132 L 78.658558 18.49132 L 78.658558 17.671771 L 79.250999 17.671771 L 79.283023 17.671771 L 79.851446 18.49132 L 80.58199 18.49132 L 79.921498 17.545979 C 80.114638 17.462006 80.264263 17.340604 80.36783 17.183853 C 80.474197 17.024303 80.525948 16.836124 80.525948 16.617792 C 80.525948 16.39946 80.475401 16.211281 80.371833 16.051731 C 80.268266 15.892181 80.118641 15.768754 79.925501 15.681981 C 79.735161 15.595208 79.511318 15.550472 79.250999 15.550472 L 77.978051 15.550472 z M 81.064349 15.550472 L 81.064349 18.49132 L 81.744856 18.49132 L 81.744856 15.550472 L 81.064349 15.550472 z M 87.172897 15.550472 L 87.172897 18.49132 L 88.50789 18.49132 C 88.826991 18.49132 89.108995 18.430619 89.352519 18.310257 C 89.598842 18.187095 89.788586 18.014881 89.922944 17.79375 C 90.060101 17.572619 90.129097 17.315757 90.129097 17.021849 C 90.129097 16.727941 90.060101 16.469173 89.922944 16.248042 C 89.788586 16.026911 89.598842 15.855709 89.352519 15.735347 C 89.108995 15.612186 88.826991 15.550472 88.50789 15.550472 L 87.172897 15.550472 z M 90.641479 15.550472 L 90.641479 18.49132 L 92.917173 18.49132 L 92.917173 17.944319 L 91.317982 17.944319 L 91.317982 17.263902 L 92.680997 17.263902 L 92.680997 16.73596 L 91.317982 16.73596 L 91.317982 16.097474 L 92.863133 16.097474 L 92.863133 15.550472 L 90.641479 15.550472 z M 94.64646 15.550472 L 94.64646 18.49132 L 96.800064 18.49132 L 96.800064 17.936695 L 95.326967 17.936695 L 95.326967 15.550472 L 94.64646 15.550472 z M 98.131054 15.550472 L 96.82208 18.49132 L 97.518599 18.49132 L 97.778792 17.860458 L 99.143808 17.860458 L 99.404002 18.49132 L 100.11853 18.49132 L 98.803555 15.550472 L 98.131054 15.550472 z M 101.61165 15.550472 L 101.61165 18.49132 L 103.88734 18.49132 L 103.88734 17.944319 L 102.28815 17.944319 L 102.28815 17.263902 L 103.65317 17.263902 L 103.65317 16.73596 L 102.28815 16.73596 L 102.28815 16.097474 L 103.8333 16.097474 L 103.8333 15.550472 L 101.61165 15.550472 z M 104.0975 15.550472 L 104.0975 16.105097 L 105.0382 16.105097 L 105.0382 18.49132 L 105.7187 18.49132 L 105.7187 16.105097 L 106.6594 16.105097 L 106.6594 15.550472 L 104.0975 15.550472 z M 51.798562 16.063167 L 52.475065 16.063167 C 52.643013 16.063167 52.770577 16.093964 52.85735 16.152746 C 52.944123 16.208728 52.987447 16.293376 52.987447 16.40814 C 52.987447 16.522904 52.944123 16.608565 52.85735 16.667346 C 52.770577 16.726128 52.643013 16.756925 52.475065 16.756925 L 51.798562 16.756925 L 51.798562 16.063167 z M 56.387978 16.063167 L 57.064482 16.063167 C 57.23243 16.063167 57.359994 16.093964 57.446767 16.152746 C 57.53354 16.208728 57.576864 16.293376 57.576864 16.40814 C 57.576864 16.522904 57.53354 16.608565 57.446767 16.667346 C 57.359994 16.726128 57.23243 16.756925 57.064482 16.756925 L 56.387978 16.756925 L 56.387978 16.063167 z M 32.662316 16.08032 C 32.835861 16.08032 32.99271 16.121125 33.132666 16.2023 C 33.272622 16.280675 33.380533 16.391176 33.458909 16.533931 C 33.540083 16.676687 33.581 16.839906 33.581 17.021849 C 33.581 17.203792 33.540083 17.365106 33.458909 17.507861 C 33.380533 17.650616 33.272622 17.76213 33.132666 17.843304 C 32.99271 17.92168 32.835861 17.961472 32.662316 17.961472 C 32.48877 17.961472 32.331922 17.92168 32.191966 17.843304 C 32.052009 17.76213 31.940893 17.650616 31.859718 17.507861 C 31.781343 17.365106 31.74163 17.203792 31.74163 17.021849 C 31.74163 16.839906 31.781343 16.676687 31.859718 16.533931 C 31.940893 16.391176 32.052009 16.280675 32.191966 16.2023 C 32.331922 16.121125 32.48877 16.08032 32.662316 16.08032 z M 45.277707 16.08032 C 45.451253 16.08032 45.608101 16.121125 45.748058 16.2023 C 45.888014 16.280675 45.997926 16.391176 46.076302 16.533931 C 46.157476 16.676687 46.198393 16.839906 46.198393 17.021849 C 46.198393 17.203792 46.157476 17.365106 46.076302 17.507861 C 45.997926 17.650616 45.888014 17.76213 45.748058 17.843304 C 45.608101 17.92168 45.451253 17.961472 45.277707 17.961472 C 45.104162 17.961472 44.947313 17.92168 44.807357 17.843304 C 44.667401 17.76213 44.558286 17.650616 44.477111 17.507861 C 44.398736 17.365106 44.359023 17.203792 44.359023 17.021849 C 44.359023 16.839906 44.398736 16.676687 44.477111 16.533931 C 44.558286 16.391176 44.667401 16.280675 44.807357 16.2023 C 44.947313 16.121125 45.104162 16.08032 45.277707 16.08032 z M 64.26184 16.08032 C 64.435386 16.08032 64.590233 16.121125 64.730189 16.2023 C 64.870145 16.280675 64.980058 16.391176 65.058433 16.533931 C 65.139608 16.676687 65.180524 16.839906 65.180524 17.021849 C 65.180524 17.203792 65.139608 17.365106 65.058433 17.507861 C 64.980058 17.650616 64.870145 17.76213 64.730189 17.843304 C 64.590233 17.92168 64.435386 17.961472 64.26184 17.961472 C 64.088295 17.961472 63.931446 17.92168 63.79149 17.843304 C 63.651534 17.76213 63.540417 17.650616 63.459243 17.507861 C 63.380867 17.365106 63.341155 17.203792 63.341155 17.021849 C 63.341155 16.839906 63.380867 16.676687 63.459243 16.533931 C 63.540417 16.391176 63.651534 16.280675 63.79149 16.2023 C 63.931446 16.121125 64.088295 16.08032 64.26184 16.08032 z M 83.864434 16.08032 C 84.037979 16.08032 84.194828 16.121125 84.334784 16.2023 C 84.47474 16.280675 84.584653 16.391176 84.663028 16.533931 C 84.744203 16.676687 84.783117 16.839906 84.783117 17.021849 C 84.783117 17.203792 84.744203 17.365106 84.663028 17.507861 C 84.584653 17.650616 84.47474 17.76213 84.334784 17.843304 C 84.194828 17.92168 84.037979 17.961472 83.864434 17.961472 C 83.690888 17.961472 83.53404 17.92168 83.394083 17.843304 C 83.254127 17.76213 83.143011 17.650616 83.061836 17.507861 C 82.983461 17.365106 82.94575 17.203792 82.94575 17.021849 C 82.94575 16.839906 82.983461 16.676687 83.061836 16.533931 C 83.143011 16.391176 83.254127 16.280675 83.394083 16.2023 C 83.53404 16.121125 83.690888 16.08032 83.864434 16.08032 z M 41.448857 16.105097 L 42.00327 16.105097 C 42.207606 16.105097 42.36325 16.150846 42.469617 16.240418 C 42.575984 16.327191 42.629736 16.452644 42.629736 16.617792 C 42.629736 16.780141 42.575984 16.905594 42.469617 16.995166 C 42.36325 17.084738 42.207606 17.130487 42.00327 17.130487 L 41.448857 17.130487 L 41.448857 16.105097 z M 78.658558 16.105097 L 79.212971 16.105097 C 79.417307 16.105097 79.572951 16.150846 79.679318 16.240418 C 79.785685 16.327191 79.837436 16.452644 79.837436 16.617792 C 79.837436 16.780141 79.785685 16.905594 79.679318 16.995166 C 79.572951 17.084738 79.417307 17.130487 79.212971 17.130487 L 78.658558 17.130487 L 78.658558 16.105097 z M 21.429954 16.108909 L 22.052417 16.108909 C 22.346325 16.108909 22.579393 16.191532 22.752939 16.35668 C 22.929283 16.519029 23.017135 16.741937 23.017135 17.021849 C 23.017135 17.301761 22.929283 17.523776 22.752939 17.688924 C 22.579393 17.851273 22.346325 17.932883 22.052417 17.932883 L 21.429954 17.932883 L 21.429954 16.108909 z M 87.853403 16.108909 L 88.473865 16.108909 C 88.767773 16.108909 89.002842 16.191532 89.176388 16.35668 C 89.352733 16.519029 89.440585 16.741937 89.440585 17.021849 C 89.440585 17.301761 89.352733 17.523776 89.176388 17.688924 C 89.002842 17.851273 88.767773 17.932883 88.473865 17.932883 L 87.853403 17.932883 L 87.853403 16.108909 z M 17.601103 16.219453 L 18.06745 17.343951 L 17.134756 17.343951 L 17.601103 16.219453 z M 76.016591 16.219453 L 76.482938 17.343951 L 75.550244 17.343951 L 76.016591 16.219453 z M 98.463302 16.219453 L 98.929649 17.343951 L 97.996955 17.343951 L 98.463302 16.219453 z M 51.798562 17.252466 L 52.593153 17.252466 C 52.95424 17.252466 53.133556 17.372975 53.133556 17.616499 C 53.133556 17.73966 53.087824 17.832171 52.995453 17.890953 C 52.905881 17.949734 52.772297 17.978625 52.593153 17.978625 L 51.798562 17.978625 L 51.798562 17.252466 z M 56.387978 17.252466 L 57.18257 17.252466 C 57.543657 17.252466 57.722972 17.372975 57.722972 17.616499 C 57.722972 17.73966 57.677241 17.832171 57.58487 17.890953 C 57.495298 17.949734 57.361714 17.978625 57.18257 17.978625 L 56.387978 17.978625 L 56.387978 17.252466 z "
       transform="scale(0.97583549,1.0247629)" />
    <path
       id="text288"
       style="font-style:normal;font-variant:normal;font-weight:600;font-stretch:normal;font-size:15.5039px;font-family:GMX;-inkscape-font-specification:'GMX, Semi-Bold';font-variant-ligatures:normal;font-variant-caps:normal;font-variant-numeric:normal;font-variant-east-asian:normal;fill:#ffffff;stroke-width:2.43529"
       d="M 53.441814 2.1141568 C 50.154991 2.1141568 47.891434 4.4870453 47.891434 8.0994503 C 47.891434 11.339762 49.999942 13.432328 53.085215 13.432328 C 56.294519 13.432328 58.465611 10.951887 58.465611 7.4945207 C 58.465611 4.2232011 56.41856 2.1141568 53.441814 2.1141568 z M 87.954318 2.1141568 C 84.776021 2.1141568 82.263515 4.408745 82.263515 7.8971189 C 82.263515 11.338981 84.357489 13.432328 87.67532 13.432328 C 89.256717 13.432328 90.65209 12.95201 91.520308 12.362862 L 91.721703 11.943747 C 91.721703 11.370103 91.720176 10.332024 91.673664 9.7428769 C 91.410098 9.6963652 90.558873 9.6654348 90.295307 9.6809387 C 90.10926 10.549156 89.938223 11.167927 89.829696 11.617539 C 89.457603 11.881105 88.806226 12.036654 87.891497 12.036654 C 85.689946 12.036654 84.41789 10.362391 84.41789 7.7732425 C 84.41789 6.1763424 84.914931 4.9199879 85.62811 4.0672743 C 86.170745 3.6796772 86.960862 3.4478924 87.860087 3.4478924 C 88.573265 3.4478924 89.208973 3.6024285 89.643082 3.8504906 C 89.720601 4.2845994 89.891556 5.1211279 90.031091 6.0513609 C 90.341169 6.1133764 91.037995 6.128803 91.317065 6.1132991 C 91.4566 5.3381049 91.658645 4.2375775 91.782676 3.4313756 L 91.566499 3.0143251 C 90.558747 2.5026969 89.380675 2.1141568 87.954318 2.1141568 z M 136.29473 2.1141568 C 133.98465 2.1141568 132.10793 3.4310424 132.10793 5.353524 C 132.10793 9.0279445 137.87633 8.2853258 137.87633 10.719436 C 137.87633 11.231064 137.70466 11.618243 137.50311 11.881809 C 137.1 12.083359 136.63541 12.1915 135.90672 12.1915 C 135.11603 12.1915 134.21715 11.974051 133.79854 11.679478 C 133.67451 11.198857 133.56669 10.733803 133.42716 9.9741128 C 133.16359 9.9586089 132.34081 9.9895393 132.06174 10.036051 C 132.01523 10.718222 132.00004 11.618714 132.01555 12.331893 L 132.06174 12.486739 C 132.80592 12.88984 134.29392 13.432328 135.87531 13.432328 C 138.40245 13.432328 139.98452 12.207182 139.98452 10.393228 C 139.98452 6.8428384 134.15514 7.5256222 134.15514 4.9364735 C 134.15514 4.471357 134.31091 4.1140953 134.49696 3.8195215 C 134.85355 3.5559555 135.45696 3.3859542 136.10812 3.3859542 C 136.8368 3.3859542 137.45805 3.5559555 137.83014 3.8195215 C 137.92316 4.2381264 138.01612 4.842522 138.10914 5.6797318 C 138.40371 5.7262434 139.10126 5.7427216 139.38033 5.7272177 C 139.48886 5.2155895 139.706 4.0671122 139.81453 3.3694374 L 139.58173 2.9358701 C 138.77552 2.4397458 137.62807 2.1141568 136.29473 2.1141568 z M 100.24867 2.1616427 C 99.550995 2.1771466 98.357365 2.254434 97.628683 2.3474573 L 97.177853 3.8670075 C 96.170101 6.5956911 95.116957 9.4775006 94.062693 12.020138 L 92.806282 12.4248 L 92.961485 13.199028 L 97.224045 13.199028 L 97.395877 12.4248 L 95.829059 12.020138 C 96.077121 11.275951 96.326007 10.470624 96.605077 9.6644218 L 100.79003 9.5880314 C 101.10011 10.502761 101.39487 11.322463 101.65844 12.020138 L 100.10825 12.4248 L 100.27823 13.199028 L 104.99162 13.199028 L 105.14682 12.4248 L 103.87563 12.020138 C 103.08493 9.9891287 101.86021 6.7196835 100.82145 3.8979766 C 100.57338 3.2003018 100.3727 2.657767 100.24867 2.1616427 z M 80.031537 2.2235809 C 78.791227 2.3166042 77.287626 2.3474573 75.42716 2.3474573 L 71.37893 2.3474573 L 71.208945 3.1216846 C 71.705069 3.2457157 72.4027 3.4311435 72.557739 3.6171901 C 72.697274 3.772229 72.698162 5.3709065 72.698162 6.3321473 L 72.698162 9.1214304 C 72.698162 9.8966246 72.650442 11.756572 72.603931 12.020138 L 71.208945 12.4248 L 71.37893 13.199028 L 80.371507 13.199028 C 80.418019 12.175771 80.418019 11.167641 80.371507 10.190896 C 80.076934 10.144385 79.364201 10.113454 79.054123 10.128958 L 78.619922 12.036654 C 78.108294 12.09867 77.395305 12.160531 76.713134 12.160531 C 76.015459 12.160531 75.02308 12.113277 74.852537 11.92723 C 74.697498 11.663664 74.713962 10.175578 74.713962 9.2143377 L 74.713962 8.4091412 L 78.248542 8.5165008 C 78.295054 8.2529347 78.386797 7.7580867 78.433308 7.4945207 L 78.17094 7.1848297 L 74.713962 7.3231583 L 74.713962 6.4085378 C 74.713962 5.6333436 74.775338 3.7569571 74.806345 3.4313756 C 75.30247 3.4158717 75.876802 3.4004065 76.496957 3.4004065 C 77.163624 3.4004065 77.892118 3.415833 78.403746 3.4623447 L 78.728935 5.3390717 C 79.054516 5.4010873 79.674143 5.4309661 79.968717 5.4154622 C 80.077244 4.7022835 80.29439 3.5086942 80.402918 2.7645078 C 80.325398 2.6404767 80.140064 2.3631159 80.031537 2.2235809 z M 118.77519 2.2235809 C 117.53488 2.3166042 116.03128 2.3474573 114.17081 2.3474573 L 110.12443 2.3474573 L 109.9526 3.1216846 C 110.44872 3.2457157 111.1482 3.4311435 111.30324 3.6171901 C 111.44277 3.772229 111.44181 5.3709065 111.44181 6.3321473 L 111.44181 9.1214304 C 111.44181 9.8966246 111.39594 11.756572 111.34943 12.020138 L 109.9526 12.4248 L 110.12443 13.199028 L 119.11701 13.199028 C 119.16352 12.175771 119.16352 11.167641 119.11701 10.190896 C 118.82243 10.144385 118.10785 10.113454 117.79778 10.128958 L 117.36357 12.036654 C 116.85195 12.09867 116.13896 12.160531 115.45679 12.160531 C 114.75911 12.160531 113.76673 12.113277 113.59619 11.92723 C 113.44115 11.663664 113.45761 10.175578 113.45761 9.2143377 L 113.45761 8.4091412 L 116.99219 8.5165008 C 117.03871 8.2529347 117.1323 7.7580867 117.17881 7.4945207 L 116.91459 7.1848297 L 113.45761 7.3231583 L 113.45761 6.4085378 C 113.45761 5.6333436 113.51899 3.7569571 113.55 3.4313756 C 114.04612 3.4158717 114.62045 3.4004065 115.24061 3.4004065 C 115.90728 3.4004065 116.63577 3.415833 117.1474 3.4623447 L 117.47259 5.3390717 C 117.79817 5.4010873 118.4178 5.4309661 118.71237 5.4154622 C 118.8209 4.7022835 119.03804 3.5086942 119.14657 2.7645078 C 119.06905 2.6404767 118.88372 2.3631159 118.77519 2.2235809 z M 5.2713835 2.25455 C 4.5737087 2.25455 2.8681215 2.3474573 2.3409894 2.3474573 L 0.16998503 2.3474573 L 0 3.1216846 C 0.51162817 3.2612196 1.2240406 3.4476604 1.3635755 3.633707 C 1.4876066 3.8042497 1.4892166 5.3709065 1.4892166 6.3321473 L 1.4892166 9.1214304 C 1.4892166 9.8966246 1.4414975 11.756572 1.3949858 12.020138 L 0 12.4248 L 0.16998503 13.199028 L 2.4500016 13.199028 C 3.5197696 13.199028 4.8685395 13.322904 5.8607881 13.322904 C 8.015828 13.322904 9.8609792 12.269391 9.8609792 10.238382 C 9.8609792 8.7500095 8.805367 7.8975056 7.5495524 7.5874279 C 8.4642815 7.1068075 9.2715746 6.2841051 9.2715746 5.0748021 C 9.2715746 3.1833283 7.7365011 2.25455 5.2713835 2.25455 z M 23.906916 2.25455 C 23.209241 2.25455 21.503654 2.3474573 20.976522 2.3474573 L 18.805517 2.3474573 L 18.635532 3.1216846 C 19.147161 3.2612196 19.859573 3.4476604 19.999108 3.633707 C 20.123139 3.8042497 20.124749 5.3709065 20.124749 6.3321473 L 20.124749 9.1214304 C 20.124749 9.8966246 20.07703 11.756572 20.030518 12.020138 L 18.635532 12.4248 L 18.805517 13.199028 L 21.085534 13.199028 C 22.155302 13.199028 23.504072 13.322904 24.49632 13.322904 C 26.65136 13.322904 28.496512 12.269391 28.496512 10.238382 C 28.496512 8.7500095 27.442747 7.8975056 26.186932 7.5874279 C 27.101662 7.1068075 27.907107 6.2841051 27.907107 5.0748021 C 27.907107 3.1833283 26.372033 2.25455 23.906916 2.25455 z M 69.255965 2.25455 C 68.093173 2.3320694 66.604839 2.3474573 64.775381 2.3474573 L 59.550189 2.3474573 C 59.519181 3.3862175 59.519181 4.4541827 59.550189 5.4464313 C 59.860267 5.4929429 60.590031 5.5094211 60.915612 5.4939172 L 61.347966 3.4788615 C 61.84409 3.416846 62.558525 3.3859542 63.225192 3.3859542 L 63.504189 3.3859542 L 63.504189 9.1214304 C 63.504189 10.346237 63.473099 11.756572 63.426587 12.020138 L 62.014972 12.4248 L 62.186805 13.199028 L 66.852155 13.199028 L 67.023987 12.4248 C 66.512359 12.285265 65.782595 12.098825 65.658564 11.912778 C 65.534533 11.742235 65.534771 10.175578 65.534771 9.2143377 L 65.534771 3.4004065 L 65.937561 3.4004065 C 66.557717 3.4004065 67.240339 3.416846 67.751967 3.4788615 L 68.139976 5.4464313 C 68.43455 5.477439 69.085907 5.4939559 69.364977 5.4629481 C 69.473504 4.5637228 69.580833 3.5862136 69.627345 2.7645078 C 69.56533 2.6404767 69.348988 2.3785811 69.255965 2.25455 z M 130.41916 2.25455 C 129.25637 2.3320694 127.76804 2.3474573 125.93858 2.3474573 L 120.71339 2.3474573 C 120.68238 3.3862175 120.68238 4.4541827 120.71339 5.4464313 C 121.02347 5.4929429 121.75138 5.5094211 122.07696 5.4939172 L 122.51116 3.4788615 C 123.00729 3.416846 123.72172 3.3859542 124.38839 3.3859542 L 124.66739 3.3859542 L 124.66739 9.1214304 C 124.66739 10.346237 124.6363 11.756572 124.58979 12.020138 L 123.17817 12.4248 L 123.34816 13.199028 L 128.01535 13.199028 L 128.18534 12.4248 C 127.67371 12.285265 126.94579 12.098825 126.82176 11.912778 C 126.69773 11.742235 126.69797 10.175578 126.69797 9.2143377 L 126.69797 3.4004065 L 127.10076 3.4004065 C 127.72092 3.4004065 128.40354 3.416846 128.91517 3.4788615 L 129.30318 5.4464313 C 129.59775 5.477439 130.24726 5.4939559 130.52633 5.4629481 C 130.63486 4.5637228 130.74403 3.5862136 130.79054 2.7645078 C 130.72853 2.6404767 130.51219 2.3785811 130.41916 2.25455 z M 11.767768 2.3474573 L 11.597783 3.1216846 C 12.109411 3.2612196 12.821823 3.4476604 12.961358 3.633707 C 13.085389 3.8042497 13.085152 5.3709065 13.085152 6.3321473 L 13.085152 9.1214304 C 13.085152 9.8966246 13.03928 11.756572 12.992769 12.020138 L 11.597783 12.4248 L 11.767768 13.199028 L 16.418336 13.199028 L 16.588321 12.4248 C 16.076693 12.285265 15.364281 12.098825 15.224746 11.912778 C 15.100715 11.742235 15.100952 10.175578 15.100952 9.2143377 L 15.100952 6.4250546 C 15.100952 5.6498604 15.146824 3.7878489 15.193336 3.5242829 L 16.588321 3.1216846 L 16.418336 2.3474573 L 11.767768 2.3474573 z M 30.4033 2.3474573 L 30.233315 3.1216846 C 30.744943 3.2612196 31.457356 3.4476604 31.596891 3.633707 C 31.720922 3.8042497 31.720684 5.3709065 31.720684 6.3321473 L 31.720684 9.1214304 C 31.720684 9.8966246 31.674813 11.756572 31.628301 12.020138 L 30.233315 12.4248 L 30.4033 13.199028 L 39.240674 13.199028 C 39.287186 12.113756 39.303092 11.044816 39.272084 10.052568 C 38.97751 9.9905523 38.247426 9.9751257 37.952853 9.9906296 L 37.47246 12.051107 C 37.007344 12.097618 36.355812 12.129562 35.735657 12.129562 C 35.037982 12.129562 34.062231 12.098786 33.891689 11.943747 C 33.73665 11.726693 33.736485 10.268602 33.736485 9.2143377 L 33.736485 6.4250546 C 33.736485 5.6498604 33.782356 3.7878489 33.828868 3.5242829 L 35.225701 3.1216846 L 35.053869 2.3474573 L 30.4033 2.3474573 z M 41.178873 2.3474573 L 41.00704 3.1216846 C 41.518668 3.2612196 42.232928 3.4476604 42.372463 3.633707 C 42.496494 3.8042497 42.496257 5.3709065 42.496257 6.3321473 L 42.496257 9.1214304 C 42.496257 9.8966246 42.450385 11.756572 42.403873 12.020138 L 41.00704 12.4248 L 41.178873 13.199028 L 45.829441 13.199028 L 45.999426 12.4248 C 45.487798 12.285265 44.775386 12.098825 44.635851 11.912778 C 44.51182 11.742235 44.512057 10.175578 44.512057 9.2143377 L 44.512057 6.4250546 C 44.512057 5.6498604 44.557929 3.7878489 44.604441 3.5242829 L 45.999426 3.1216846 L 45.829441 2.3474573 L 41.178873 2.3474573 z M 5.0071676 3.3694374 C 5.7203463 3.3694374 6.3260889 3.5094439 6.7291899 3.8195215 C 6.977252 4.1295992 7.178172 4.5629806 7.178172 5.2296476 C 7.178172 6.2063923 6.5885104 6.9521554 5.9993628 7.277737 L 3.5031697 7.1848297 L 3.5031697 6.4250546 C 3.5031697 5.6498604 3.5508889 3.8188567 3.5974005 3.5242829 C 3.9694937 3.4467634 4.5885628 3.3694374 5.0071676 3.3694374 z M 23.6427 3.3694374 C 24.355879 3.3694374 24.961621 3.5094439 25.364722 3.8195215 C 25.612784 4.1295992 25.813704 4.5629806 25.813704 5.2296476 C 25.813704 6.2063923 25.224043 6.9521554 24.634895 7.277737 L 22.138702 7.1848297 L 22.138702 6.4250546 C 22.138702 5.6498604 22.186421 3.8188567 22.232933 3.5242829 C 22.605026 3.4467634 23.224095 3.3694374 23.6427 3.3694374 z M 53.148036 3.4623447 C 55.380595 3.4623447 56.340798 5.1220783 56.340798 7.7732425 C 56.340798 9.6802202 55.768333 10.859171 55.365232 11.386303 C 54.915619 11.773901 54.170652 12.08414 53.240419 12.08414 C 51.116387 12.08414 50.016246 10.486268 50.016246 7.8971189 C 50.016246 6.1916916 50.449579 4.9364274 51.023223 4.1457293 C 51.534851 3.7736361 52.310826 3.4623447 53.148036 3.4623447 z M 98.620878 3.633707 C 99.256537 5.3081265 99.861237 6.9826679 100.40387 8.5020485 L 96.976458 8.4545626 C 97.50359 6.8421586 98.062738 5.1995993 98.620878 3.633707 z M 3.5031697 8.4091412 L 5.6132012 8.4091412 C 7.0240547 8.4091412 7.7361664 9.1531105 7.7361664 10.238382 C 7.7361664 11.02908 7.3797953 11.6646 6.8991749 12.005685 C 6.48057 12.14522 5.8921062 12.208017 5.4579975 12.208017 C 4.6983072 12.208017 3.7838496 12.114329 3.6288108 11.912778 C 3.4892758 11.742235 3.5031697 10.175578 3.5031697 9.2143377 L 3.5031697 8.4091412 z M 22.138702 8.4091412 L 24.248734 8.4091412 C 25.659587 8.4091412 26.371699 9.1531105 26.371699 10.238382 C 26.371699 11.02908 26.015328 11.6646 25.534707 12.005685 C 25.116102 12.14522 24.527639 12.208017 24.09353 12.208017 C 23.33384 12.208017 22.419382 12.114329 22.264343 11.912778 C 22.124808 11.742235 22.138702 10.175578 22.138702 9.2143377 L 22.138702 8.4091412 z "
       transform="scale(1.0570784,0.94600363)" />
  </g>
</svg>
